<svg width="22" height="22" viewBox="0 0 22 22" fill="none" xmlns="http://www.w3.org/2000/svg">
<path fill-rule="evenodd" clip-rule="evenodd" d="M21.3536 0.646447C21.5488 0.841709 21.5488 1.15829 21.3536 1.35355L1.35355 21.3536C1.15829 21.5488 0.841709 21.5488 0.646447 21.3536C0.451184 21.1583 0.451184 20.8417 0.646447 20.6464L20.6464 0.646447C20.8417 0.451184 21.1583 0.451184 21.3536 0.646447Z" fill="#2D2D2D"/>
<path fill-rule="evenodd" clip-rule="evenodd" d="M0.646446 0.646447C0.451185 0.841709 0.451185 1.15829 0.646446 1.35355L20.6464 21.3536C20.8417 21.5488 21.1583 21.5488 21.3536 21.3536C21.5488 21.1583 21.5488 20.8417 21.3536 20.6464L1.35355 0.646447C1.15829 0.451184 0.841709 0.451184 0.646446 0.646447Z" fill="#2D2D2D"/>
</svg>
