<svg width="112" height="77" viewBox="0 0 112 77" fill="none" xmlns="http://www.w3.org/2000/svg">
<path d="M71.8585 16.6966H68.8658L64.177 27.3063L52.1157 0.0154099L48.9873 7.08855L45.8514 0H42.8587L47.4872 10.4787L40.8535 25.4726H43.8462L46.4921 19.4858H51.4674L61.0335 41.129H61.0486L64.1694 34.0713L67.2903 41.129H70.283L65.6695 30.6888L71.8509 16.6966H71.8585ZM52.1157 6.78035L56.4954 16.6966H53.2314L50.4799 10.471L52.1157 6.78035ZM47.736 16.6966L48.9873 13.8535L50.2387 16.6966H47.7284H47.736ZM61.0561 34.3795L54.4676 19.4858H57.7317L62.6844 30.6888L61.0561 34.3795Z" fill="#967852"/>
<path d="M9.79811 48.0977L17.6063 64.7201H15.1006L13.6579 61.5184H4.26151L2.79352 64.7201H0.357422L8.23521 48.0977H9.79811ZM12.7341 59.4682L9.02615 51.2298L5.21697 59.4682H12.7341Z" fill="white"/>
<path d="M27.3887 64.7201L19.416 48.0977H21.9913L28.1797 61.4931L34.2731 48.0977H36.7535L28.8757 64.7201H27.3824H27.3887Z" fill="white"/>
<path d="M48.009 48.0977L55.8172 64.7201H53.3115L51.8688 61.5184H42.4724L41.0045 64.7201H38.5684L46.4461 48.0977H48.009ZM50.945 59.4682L47.2371 51.2298L43.4279 59.4682H50.945Z" fill="white"/>
<path d="M59.0703 64.7201V48.0977H61.285V62.6004H71.7634V64.7201H59.0703Z" fill="white"/>
<path d="M79.7541 64.6747C78.6847 64.4026 77.7925 63.9344 77.0649 63.2763C76.3435 62.6182 75.7994 61.7324 75.4387 60.6251C75.078 59.5177 74.8945 58.1194 74.8945 56.4362C74.8945 54.7531 75.0907 53.2471 75.483 52.1272C75.8753 51.0072 76.4384 50.115 77.1661 49.4633C77.8938 48.8115 78.7923 48.3623 79.8553 48.1155C80.9183 47.8687 82.1142 47.7422 83.443 47.7422C84.7718 47.7422 85.974 47.8687 87.0307 48.1155C88.0938 48.3623 88.9923 48.8115 89.7263 49.4633C90.4666 50.115 91.0298 51.0009 91.4157 52.1272C91.8017 53.2535 91.9915 54.6898 91.9915 56.4362C91.9915 58.1826 91.808 59.5177 91.4474 60.6251C91.0867 61.7324 90.5425 62.6182 89.8212 63.2763C89.0999 63.9344 88.2013 64.4026 87.1383 64.6747C86.069 64.9468 84.8351 65.086 83.443 65.086C82.051 65.086 80.8108 64.9468 79.7478 64.6747H79.7541ZM86.1133 62.7321C86.8915 62.5803 87.5496 62.2702 88.0874 61.802C88.6253 61.3337 89.0366 60.6757 89.315 59.8151C89.5934 58.9546 89.7389 57.8283 89.7389 56.4299C89.7389 55.0315 89.5997 53.8293 89.315 52.9624C89.0302 52.0955 88.6253 51.4311 88.0874 50.9756C87.5496 50.52 86.8915 50.2163 86.1133 50.0707C85.335 49.9252 84.4491 49.8556 83.4494 49.8556C82.4496 49.8556 81.5638 49.9252 80.7855 50.0581C80.0072 50.1909 79.3491 50.4883 78.8113 50.9502C78.2734 51.4122 77.8621 52.0702 77.5837 52.9371C77.3053 53.804 77.1598 54.9682 77.1598 56.4299C77.1598 57.8916 77.299 58.9546 77.5837 59.8151C77.8621 60.6757 78.2734 61.3337 78.8113 61.802C79.3491 62.2702 80.0072 62.5803 80.7855 62.7321C81.5638 62.884 82.4496 62.9599 83.4494 62.9599C84.4491 62.9599 85.335 62.884 86.1133 62.7321Z" fill="white"/>
<path d="M109.689 60.8413V48.0977H111.86V64.7201H110.417L98.6352 52.0017V64.7201H96.4648V48.0977H97.8126L109.689 60.8413Z" fill="white"/>
<path d="M35.4808 76.9551C35.2847 76.9171 35.1202 76.8538 34.981 76.7652C34.8418 76.6767 34.7342 76.5564 34.6519 76.4046C34.576 76.2527 34.5317 76.0629 34.5254 75.8351H34.8291C34.8354 76.0249 34.8734 76.1768 34.943 76.2907C35.0126 76.4046 35.1012 76.4995 35.2214 76.5628C35.3353 76.626 35.4745 76.6767 35.6264 76.6956C35.7782 76.7209 35.9491 76.7336 36.1263 76.7336C36.373 76.7336 36.5755 76.7146 36.7274 76.683C36.8856 76.6513 37.0058 76.6007 37.1007 76.5374C37.1893 76.4742 37.2526 76.3982 37.2905 76.3097C37.3285 76.2211 37.3411 76.1262 37.3411 76.0186C37.3411 75.911 37.3222 75.8161 37.2842 75.7465C37.2462 75.6769 37.1956 75.6136 37.1323 75.563C37.0627 75.5124 36.9868 75.4744 36.8856 75.4491C36.7906 75.4238 36.6831 75.3985 36.5629 75.3795L35.4998 75.215C35.1961 75.1707 34.9746 75.0631 34.8418 74.9049C34.7026 74.7468 34.633 74.5633 34.633 74.3544C34.633 74.2279 34.6583 74.1013 34.7026 73.9874C34.7532 73.8736 34.8291 73.7786 34.9493 73.6901C35.0632 73.6078 35.2151 73.5382 35.4049 73.4876C35.5947 73.437 35.8289 73.418 36.1073 73.418C36.3287 73.418 36.5312 73.437 36.7147 73.4686C36.8982 73.5066 37.0564 73.5635 37.1956 73.6521C37.3285 73.7407 37.4361 73.8609 37.512 74.0064C37.5879 74.152 37.6322 74.3418 37.6449 74.5696H37.3475C37.3348 74.3798 37.2969 74.2279 37.2336 74.114C37.164 74.0001 37.0754 73.9115 36.9678 73.8482C36.8539 73.785 36.7274 73.7407 36.5818 73.7217C36.4363 73.7027 36.2781 73.6901 36.1073 73.6901C35.8542 73.6901 35.6517 73.709 35.4998 73.747C35.348 73.785 35.2277 73.8356 35.1392 73.8989C35.0569 73.9621 35 74.0317 34.9683 74.1077C34.943 74.1836 34.924 74.2659 34.924 74.3418C34.924 74.4936 34.9746 74.6202 35.0759 74.7278C35.1771 74.8353 35.3416 74.9049 35.5758 74.9429L36.6578 75.1074C36.9995 75.158 37.2462 75.253 37.4044 75.3922C37.5626 75.5314 37.6385 75.7338 37.6385 76.0123C37.6385 76.1641 37.6132 76.3033 37.5626 76.4235C37.512 76.5438 37.4297 76.6513 37.3095 76.7336C37.1956 76.8222 37.0374 76.8855 36.8476 76.9298C36.6578 76.974 36.4173 76.9994 36.1326 76.9994C35.8985 76.9994 35.6833 76.9804 35.4872 76.9424L35.4808 76.9551Z" fill="white"/>
<path d="M43.1814 75.0566V73.5H43.4661V76.9358H43.1814V75.3287H40.7769V76.9358H40.4922V73.5H40.7769V75.0566H43.1814Z" fill="white"/>
<path d="M47.8504 75.3919L49.2488 73.5H49.5841L47.9896 75.6703V76.9422H47.7049V75.6703L46.0977 73.5H46.4457L47.8441 75.3919H47.8504Z" fill="white"/>
<path d="M52.5015 76.9358H52.2168V73.5H52.4256L54.0265 75.316L55.621 73.5H55.8235V76.9358H55.5388V73.9872L54.0201 75.6957L52.5015 73.9746V76.9358Z" fill="white"/>
<path d="M58.7852 76.9358V73.5H59.0699V76.9358H58.7852ZM59.5192 75.316H59.1648L61.1453 73.5H61.5313L59.728 75.1388L61.6389 76.9358H61.2276L59.5128 75.316H59.5192Z" fill="white"/>
<path d="M64.2969 76.9358V73.5H66.8405V73.7721H64.5816V75.0566H66.7899V75.3223H64.5816V76.6574H66.8405V76.9295H64.2969V76.9358Z" fill="white"/>
<path d="M72.5271 76.4486V73.5H72.8055V76.9358H72.603L69.9581 73.9935V76.9358H69.6797V73.5H69.8632L72.5208 76.4486H72.5271Z" fill="white"/>
<path d="M77.2171 73.7721V76.9358H76.9324V73.7721H75.4707V73.5H78.6851V73.7721H77.2234H77.2171Z" fill="white"/>
</svg>
