<svg width="37" height="48" viewBox="0 0 37 48" fill="none" xmlns="http://www.w3.org/2000/svg">
<path d="M37 19.486H33.4286L27.8332 31.8681L13.4398 0.0179843L9.70654 8.27276L5.96426 0H2.3929L7.91636 12.2293L0 29.728H3.57136L6.7289 22.7411H12.6662L24.0819 48H24.0999L27.8242 39.7632L31.5485 48H35.1199L29.6144 35.8157L36.991 19.486H37ZM13.4398 7.91308L18.6664 19.486H14.7712L11.4877 12.2203L13.4398 7.91308ZM8.21322 19.486L9.70654 16.1679L11.1999 19.486H8.20423H8.21322ZM24.1089 40.1229L16.2465 22.7411H20.1417L26.052 35.8157L24.1089 40.1229Z" fill="white"/>
</svg>
