<svg width="363" height="54" viewBox="0 0 363 54" fill="none" xmlns="http://www.w3.org/2000/svg">
<path d="M88.3931 0H0V7.19822H88.3931V0Z" fill="#967852"/>
<path d="M42.0344 18.7217V11.5234C28.014 11.5234 14.0204 11.5234 0 11.5234V18.7217C14.0204 18.7217 28.014 18.7217 42.0344 18.7217Z" fill="#967852"/>
<path d="M34.863 34.5943H18.7207V41.7925H42.0612C42.0612 35.5344 42.0612 29.2762 42.0612 23.0449H0V30.2431H34.8362V34.5943H34.863Z" fill="#967852"/>
<path d="M77.0861 11.5234H46.3594V18.7217H77.0861V11.5234Z" fill="#967852"/>
<path d="M69.6992 41.7936H88.3662V11.5234H81.4098V34.5953H69.6992V41.7936Z" fill="#967852"/>
<path d="M46.3589 41.7925H65.3751V34.5943H53.5571V30.2431H77.0588V23.0449H46.332V41.7925H46.3589Z" fill="#967852"/>
<path d="M7.19822 46.0909V41.7934H14.3964V34.5952C9.58867 34.5952 4.80777 34.5952 0 34.5684V34.5952V53.2891C29.4644 53.2891 58.9287 53.2891 88.3931 53.2891V46.0909C61.346 46.0909 34.2721 46.0909 7.22508 46.0909H7.19822Z" fill="#967852"/>
<path d="M158.225 29.6537C159.81 31.3996 160.616 33.7095 160.616 36.5565C160.616 40.8808 159.273 44.0233 156.587 46.0109C153.901 47.9985 149.819 48.9922 144.286 48.9922H115.52V4.29883H143.238C148.852 4.29883 152.907 5.21203 155.405 7.03845C157.903 8.86486 159.165 11.9805 159.165 16.3317C159.165 18.9101 158.36 21.0051 156.748 22.6167C155.137 24.2014 152.988 25.3026 150.302 25.8666V26.3769C153.982 26.8067 156.614 27.9079 158.199 29.6537H158.225ZM125.323 23.0733H141.385C144.071 23.0733 146.058 22.6435 147.401 21.7841C148.744 20.9246 149.416 19.3936 149.416 17.1912C149.416 16.1437 149.281 15.2842 148.986 14.6127C148.69 13.9412 148.261 13.3772 147.616 12.9743C146.971 12.5714 146.166 12.276 145.118 12.1417C144.071 11.9805 142.781 11.9268 141.224 11.9268H125.296V23.127L125.323 23.0733ZM125.323 41.3911H142.352C145.199 41.3911 147.321 40.9883 148.744 40.1556C150.141 39.323 150.839 37.8189 150.839 35.6165C150.839 34.4884 150.705 33.5483 150.409 32.7963C150.141 32.0442 149.63 31.4264 148.959 30.9698C148.261 30.5132 147.374 30.1909 146.3 30.0298C145.226 29.8686 143.856 29.7612 142.217 29.7612H125.323V41.3643V41.3911Z" fill="#353535"/>
<path d="M193.786 4.29883L216.455 48.9922H205.496L201.87 41.2837H176.542L172.863 48.9922H162.441L185.298 4.29883H193.786ZM198.647 34.2735L189.381 14.4515L179.927 34.2735H198.647Z" fill="#353535"/>
<path d="M239.85 12.464V48.9922H230.073V12.464H210.654V4.29883H259.35V12.464H239.85Z" fill="#353535"/>
<path d="M275.788 49.1804C272.753 48.6701 270.255 47.8106 268.241 46.6019C266.227 45.3933 264.723 43.8086 263.702 41.8479C262.681 39.8872 262.171 37.443 262.117 34.5691H272.35C272.431 36.2612 272.834 37.6042 273.505 38.6517C274.204 39.6992 275.144 40.5049 276.326 41.069C277.507 41.6599 278.958 42.0628 280.623 42.2776C282.315 42.4925 284.195 42.5999 286.317 42.5999C289.164 42.5999 291.474 42.4656 293.247 42.1702C295.02 41.9016 296.389 41.4987 297.383 40.9615C298.377 40.4512 299.048 39.8066 299.424 39.0545C299.8 38.3025 299.962 37.443 299.962 36.5029C299.962 35.5629 299.774 34.7034 299.371 34.1125C298.995 33.4947 298.457 33.0113 297.786 32.6352C297.115 32.2592 296.309 31.9369 295.369 31.722C294.429 31.5072 293.381 31.3191 292.253 31.1311L276.702 28.7407C272.162 28.0155 268.832 26.592 266.737 24.5238C264.615 22.4557 263.568 19.7698 263.568 16.493C263.568 14.6665 263.944 12.9744 264.669 11.4166C265.394 9.83192 266.656 8.43525 268.402 7.22659C270.148 6.01793 272.485 5.07787 275.439 4.37953C278.367 3.6812 282.047 3.33203 286.451 3.33203C290.239 3.33203 293.569 3.57376 296.389 4.08408C299.21 4.56755 301.6 5.40018 303.507 6.58197C305.441 7.73691 306.918 9.29474 307.939 11.2554C308.986 13.1893 309.55 15.6066 309.685 18.4537H299.827C299.693 16.8153 299.317 15.4723 298.672 14.4785C298.028 13.4579 297.141 12.679 295.986 12.1418C294.831 11.6046 293.489 11.2286 291.904 11.0406C290.319 10.8526 288.52 10.7451 286.505 10.7451C283.712 10.7451 281.429 10.9063 279.71 11.2017C277.991 11.4972 276.648 11.9269 275.735 12.4372C274.822 12.9476 274.204 13.5385 273.881 14.1831C273.559 14.8277 273.425 15.526 273.425 16.2512C273.425 17.621 273.908 18.7223 274.875 19.5549C275.842 20.3875 277.454 20.9516 279.71 21.3007L294.939 23.6375C297.437 24.0135 299.639 24.5238 301.519 25.0878C303.4 25.6787 304.957 26.4308 306.22 27.3977C307.482 28.3646 308.422 29.5196 309.04 30.9163C309.658 32.3129 309.98 34.0319 309.98 36.0732C309.98 38.2756 309.631 40.2363 308.906 41.9285C308.18 43.6474 306.945 45.0978 305.145 46.3065C303.346 47.5151 300.955 48.4283 297.92 49.0461C294.885 49.6639 291.044 49.9862 286.398 49.9862C282.342 49.9862 278.797 49.7176 275.788 49.2073V49.1804Z" fill="#353535"/>
<path d="M326.363 4.29883V30.7281C326.363 32.9305 326.632 34.757 327.196 36.2073C327.76 37.6577 328.593 38.7858 329.721 39.6453C330.849 40.5048 332.245 41.0688 333.911 41.418C335.576 41.7672 337.537 41.9283 339.766 41.9283C341.995 41.9283 343.983 41.7672 345.648 41.418C347.313 41.0688 348.737 40.4779 349.865 39.6453C350.993 38.8127 351.826 37.6577 352.39 36.2073C352.954 34.757 353.222 32.9305 353.222 30.7281V4.29883H362.999V31.507C362.999 37.7652 361.146 42.4118 357.439 45.42C353.733 48.4551 347.824 49.9592 339.766 49.9592C331.708 49.9592 325.853 48.4551 322.12 45.4469C318.386 42.4386 316.506 37.792 316.506 31.4802V4.29883H326.363Z" fill="#353535"/>
</svg>
