<svg width="24" height="41" viewBox="0 0 24 41" fill="none" xmlns="http://www.w3.org/2000/svg">
<path fill-rule="evenodd" clip-rule="evenodd" d="M23.3907 34.6119L21.4664 30.2386L19.8929 33.8052L19.6138 33.1742L19.6311 33.2957L14.4978 21.6092L13.5246 19.4091H13.5314L12.3472 16.7131H12.3296L9.67004 10.6954L9.68706 10.657L8.24763 7.38004L8.22732 7.42597L5.19615 0.574219H2.30343L6.77731 10.7029L0.365234 25.1958H3.25796L5.8155 19.4091H10.6246L19.8711 40.3293H19.8856L22.9022 33.5073L23.3907 34.6119ZM18.1094 22.6432L21.3141 29.8925L18.1021 22.5924L18.1094 22.6432ZM8.22732 13.9649L7.01777 16.7131H9.43687L8.22732 13.9649Z" fill="#967852"/>
</svg>
