<svg width="883" height="231" viewBox="0 0 883 231" fill="none" xmlns="http://www.w3.org/2000/svg">
<g opacity="0.8">
<path d="M173.793 93.5899H157.018L130.735 153.061L63.1282 0.0863773L45.5926 39.7336L28.0147 0H11.2397L37.1839 58.7366L0 142.782H16.775L31.6063 109.224H59.4943L113.115 230.541H113.2L130.693 190.98L148.186 230.541H164.961L139.102 172.02L173.75 93.5899H173.793ZM63.1282 38.006L87.678 93.5899H69.3818L53.9589 58.6934L63.1282 38.006ZM38.5783 93.5899L45.5926 77.6532L52.6068 93.5899H38.5361H38.5783ZM113.242 192.708L76.3115 109.224H94.6077L122.369 172.02L113.242 192.708Z" fill="#967852"/>
<path d="M310.764 30.832L354.531 124.006H340.486L332.399 106.059H279.729L271.501 124.006H257.846L302.003 30.832H310.764ZM327.221 94.5678L306.437 48.3886L285.085 94.5678H327.221Z" fill="white"/>
<path d="M409.361 124.006L364.672 30.832H379.107L413.795 105.918L447.95 30.832H461.854L417.696 124.006H409.326H409.361Z" fill="white"/>
<path d="M524.953 30.832L568.721 124.006H554.675L546.589 106.059H493.919L485.69 124.006H472.035L516.193 30.832H524.953ZM541.41 94.5678L520.626 48.3886L499.274 94.5678H541.41Z" fill="white"/>
<path d="M586.951 124.006V30.832H599.365V112.124H658.1V124.006H586.951Z" fill="white"/>
<path d="M702.884 123.752C696.89 122.227 691.889 119.602 687.81 115.913C683.767 112.225 680.716 107.259 678.695 101.052C676.673 94.8456 675.645 87.0072 675.645 77.5727C675.645 68.1383 676.744 59.6969 678.943 53.4191C681.142 47.1413 684.299 42.1403 688.377 38.4871C692.456 34.8339 697.493 32.3157 703.451 30.9325C709.41 29.5492 716.113 28.8398 723.562 28.8398C731.01 28.8398 737.749 29.5492 743.672 30.9325C749.63 32.3157 754.667 34.8339 758.781 38.4871C762.931 42.1403 766.088 47.1058 768.251 53.4191C770.415 59.7324 771.479 67.7836 771.479 77.5727C771.479 87.3618 770.45 94.8456 768.428 101.052C766.407 107.259 763.357 112.225 759.313 115.913C755.27 119.602 750.233 122.227 744.275 123.752C738.281 125.277 731.365 126.057 723.562 126.057C715.759 126.057 708.807 125.277 702.848 123.752H702.884ZM738.529 112.863C742.892 112.012 746.58 110.274 749.595 107.649C752.61 105.025 754.915 101.336 756.476 96.5125C758.036 91.6889 758.852 85.3756 758.852 77.5372C758.852 69.6988 758.072 62.9599 756.476 58.1008C754.88 53.2417 752.61 49.5176 749.595 46.9639C746.58 44.4102 742.892 42.7078 738.529 41.892C734.166 41.0763 729.201 40.6861 723.597 40.6861C717.993 40.6861 713.028 41.0763 708.665 41.8211C704.303 42.5659 700.614 44.2329 697.599 46.8221C694.584 49.4112 692.279 53.0999 690.718 57.959C689.158 62.8181 688.342 69.3442 688.342 77.5372C688.342 85.7303 689.122 91.6889 690.718 96.5125C692.279 101.336 694.584 105.025 697.599 107.649C700.614 110.274 704.303 112.012 708.665 112.863C713.028 113.714 717.993 114.14 723.597 114.14C729.201 114.14 734.166 113.714 738.529 112.863Z" fill="white"/>
<path d="M870.696 102.264V30.832H882.862V124.006H874.775L808.734 52.7157V124.006H796.568V30.832H804.123L870.696 102.264Z" fill="white"/>
<path d="M454.721 192.6C453.621 192.387 452.699 192.032 451.919 191.536C451.139 191.039 450.536 190.366 450.075 189.514C449.649 188.663 449.401 187.599 449.365 186.322H451.068C451.103 187.386 451.316 188.237 451.706 188.876C452.096 189.514 452.593 190.046 453.267 190.401C453.905 190.756 454.685 191.039 455.537 191.146C456.388 191.288 457.346 191.359 458.339 191.359C459.722 191.359 460.857 191.252 461.708 191.075C462.595 190.898 463.269 190.614 463.801 190.259C464.297 189.904 464.652 189.479 464.865 188.982C465.077 188.486 465.148 187.954 465.148 187.351C465.148 186.748 465.042 186.216 464.829 185.826C464.616 185.435 464.333 185.081 463.978 184.797C463.588 184.513 463.162 184.3 462.595 184.159C462.063 184.017 461.46 183.875 460.786 183.768L454.827 182.846C453.125 182.598 451.883 181.995 451.139 181.108C450.358 180.222 449.968 179.193 449.968 178.023C449.968 177.313 450.11 176.604 450.358 175.966C450.642 175.327 451.068 174.795 451.742 174.299C452.38 173.837 453.231 173.447 454.295 173.164C455.359 172.88 456.672 172.773 458.232 172.773C459.474 172.773 460.609 172.88 461.637 173.057C462.666 173.27 463.552 173.589 464.333 174.086C465.077 174.582 465.68 175.256 466.106 176.072C466.532 176.888 466.78 177.952 466.851 179.229H465.184C465.113 178.165 464.9 177.313 464.545 176.675C464.155 176.036 463.659 175.54 463.056 175.185C462.417 174.831 461.708 174.582 460.892 174.476C460.077 174.37 459.19 174.299 458.232 174.299C456.813 174.299 455.679 174.405 454.827 174.618C453.976 174.831 453.302 175.114 452.806 175.469C452.345 175.824 452.025 176.214 451.848 176.639C451.706 177.065 451.6 177.526 451.6 177.952C451.6 178.803 451.883 179.512 452.451 180.115C453.018 180.718 453.941 181.108 455.253 181.321L461.318 182.243C463.233 182.527 464.616 183.059 465.503 183.839C466.39 184.62 466.815 185.755 466.815 187.315C466.815 188.166 466.674 188.947 466.39 189.621C466.106 190.295 465.645 190.898 464.971 191.359C464.333 191.855 463.446 192.21 462.382 192.458C461.318 192.706 459.97 192.848 458.374 192.848C457.062 192.848 455.856 192.742 454.756 192.529L454.721 192.6Z" fill="white"/>
<path d="M497.888 181.963V173.238H499.484V192.497H497.888V183.488H484.41V192.497H482.814V173.238H484.41V181.963H497.888Z" fill="white"/>
<path d="M524.065 183.843L531.903 173.238H533.783L524.845 185.404V192.533H523.249V185.404L514.24 173.238H516.191L524.029 183.843H524.065Z" fill="white"/>
<path d="M550.129 192.497H548.533V173.238H549.704L558.677 183.418L567.615 173.238H568.75V192.497H567.154V175.969L558.642 185.546L550.129 175.898V192.497Z" fill="white"/>
<path d="M585.355 192.497V173.238H586.952V192.497H585.355ZM589.47 183.418H587.484L598.585 173.238H600.749L590.64 182.424L601.351 192.497H599.046L589.434 183.418H589.47Z" fill="white"/>
<path d="M616.242 192.497V173.238H630.5V174.763H617.838V181.963H630.217V183.453H617.838V190.937H630.5V192.462H616.242V192.497Z" fill="white"/>
<path d="M662.369 189.766V173.238H663.929V192.497H662.794L647.969 176.005V192.497H646.408V173.238H647.437L662.333 189.766H662.369Z" fill="white"/>
<path d="M688.662 174.763V192.497H687.066V174.763H678.873V173.238H696.891V174.763H688.698H688.662Z" fill="white"/>
</g>
</svg>
