<svg width="26" height="19" viewBox="0 0 26 19" fill="none" xmlns="http://www.w3.org/2000/svg">
<path fill-rule="evenodd" clip-rule="evenodd" d="M0.25 1C0.25 0.585786 0.585786 0.25 1 0.25H24.3333C24.7475 0.25 25.0833 0.585786 25.0833 1C25.0833 1.41421 24.7475 1.75 24.3333 1.75H1C0.585786 1.75 0.25 1.41421 0.25 1Z" fill="white"/>
<path fill-rule="evenodd" clip-rule="evenodd" d="M0.25 9.33203C0.25 8.91782 0.585786 8.58203 1 8.58203H24.3333C24.7475 8.58203 25.0833 8.91782 25.0833 9.33203C25.0833 9.74624 24.7475 10.082 24.3333 10.082H1C0.585786 10.082 0.25 9.74624 0.25 9.33203Z" fill="white"/>
<path fill-rule="evenodd" clip-rule="evenodd" d="M0.25 17.6641C0.25 17.2498 0.585786 16.9141 1 16.9141H24.3333C24.7475 16.9141 25.0833 17.2498 25.0833 17.6641C25.0833 18.0783 24.7475 18.4141 24.3333 18.4141H1C0.585786 18.4141 0.25 18.0783 0.25 17.6641Z" fill="white"/>
</svg>
