<svg width="42" height="42" viewBox="0 0 42 42" fill="none" xmlns="http://www.w3.org/2000/svg">
<path fill-rule="evenodd" clip-rule="evenodd" d="M40.5 21C40.5 10.2304 31.7696 1.5 21 1.5C10.2304 1.5 1.5 10.2304 1.5 21C1.5 31.7696 10.2304 40.5 21 40.5C31.7696 40.5 40.5 31.7696 40.5 21ZM21 0.499999C32.3218 0.5 41.5 9.67816 41.5 21C41.5 32.3218 32.3218 41.5 21 41.5C9.67816 41.5 0.499999 32.3218 0.499999 21C0.5 9.67816 9.67816 0.499999 21 0.499999Z" fill="white"/>
<path d="M21 13L20.6464 12.6464L21 12.2929L21.3536 12.6464L21 13ZM21.5 28C21.5 28.2761 21.2761 28.5 21 28.5C20.7239 28.5 20.5 28.2761 20.5 28L21.5 28ZM14.6464 18.6464L20.6464 12.6464L21.3536 13.3536L15.3536 19.3536L14.6464 18.6464ZM21.3536 12.6464L27.3535 18.6464L26.6464 19.3536L20.6464 13.3536L21.3536 12.6464ZM21.5 13L21.5 28L20.5 28L20.5 13L21.5 13Z" fill="white"/>
</svg>
