<svg width="174" height="231" viewBox="0 0 174 231" fill="none" xmlns="http://www.w3.org/2000/svg">
<path d="M173.793 93.5899H157.018L130.735 153.061L63.1282 0.0863773L45.5926 39.7336L28.0147 0H11.2397L37.1839 58.7366L0 142.782H16.775L31.6063 109.224H59.4943L113.115 230.541H113.2L130.693 190.98L148.186 230.541H164.961L139.102 172.02L173.75 93.5899H173.793ZM63.1282 38.006L87.678 93.5899H69.3818L53.9589 58.6934L63.1282 38.006ZM38.5783 93.5899L45.5926 77.6532L52.6068 93.5899H38.5361H38.5783ZM113.242 192.708L76.3115 109.224H94.6077L122.369 172.02L113.242 192.708Z" fill="#967852"/>
</svg>
