<svg width="458" height="476" viewBox="0 0 458 476" fill="none" xmlns="http://www.w3.org/2000/svg">
<mask id="mask0_1073_3414" style="mask-type:alpha" maskUnits="userSpaceOnUse" x="-458" y="0" width="916" height="476">
<rect x="-458" width="916" height="476" fill="#151515"/>
</mask>
<g mask="url(#mask0_1073_3414)">
<mask id="mask1_1073_3414" style="mask-type:alpha" maskUnits="userSpaceOnUse" x="-234" y="-25" width="753" height="461">
<path d="M-121.341 236L-84.2459 221.204L-121.341 209.798V190.244L-190.31 145.36L-174.648 124.177L43.5 -24.5L197.5 53.5H300.5L453 -24.5L484.5 65.5L519 395L251 435.5L26 395L-234 424L-65.2863 388.892L-76.0026 339.398L-59.5159 286.217L-121.341 236Z" fill="#D9D9D9"/>
</mask>
<g mask="url(#mask1_1073_3414)">
<path d="M-158.154 77.9666L192.903 187.35C197.714 188.85 202.656 189.897 207.662 190.479L210.393 190.797M210.393 190.797L223.275 186.265L244.266 170.998M210.393 190.797L209.81 191.202C206.636 193.411 204.306 196.632 203.203 200.338V200.338M244.266 170.998L252.554 160.041C256.398 154.959 259.63 149.442 262.182 143.604L325.609 -1.46777L329.426 0.44056L268.119 142.171C264.637 150.222 260.107 157.778 254.647 164.644L247.129 174.099M244.266 170.998L220.72 190.263C217.187 193.153 214.004 196.446 211.234 200.075L207.769 204.614M247.129 174.099L232.101 189.604L229.954 196.283M247.129 174.099L224.782 192.015C221.253 194.844 218.172 198.191 215.645 201.942L212.063 207.256M229.954 196.283L250.945 204.614L338.967 225.862L523.122 284.305L521.69 288.36L337.775 229.918L249.753 208.687L224.229 203.44M229.954 196.283V196.283C228.852 198.643 227.276 200.751 225.323 202.474L224.229 203.44M224.229 203.44L222.826 204.141C220.591 205.258 218.214 206.066 215.761 206.541V206.541L212.063 207.256M212.063 207.256L207.769 204.614M212.063 207.256L151.187 403.078C149.952 407.051 148.212 410.85 146.011 414.38L126.768 445.242C124.957 448.146 123.508 451.261 122.453 454.517L118.555 466.551M-158.869 81.0676L192.991 191.996C195.94 192.925 198.549 194.702 200.495 197.105L201.567 198.43L203.203 200.338M111.637 466.551L116.162 454.225C117.753 449.891 119.786 445.732 122.229 441.814L140.741 412.124C142.799 408.824 144.433 405.277 145.603 401.568L207.769 204.614M207.769 204.614V204.614C206.505 203.836 205.369 202.866 204.403 201.738L203.203 200.338" stroke="#343434" stroke-width="4.29375"/>
<path d="M290.064 92.7563L286.79 110.376C285.638 116.573 285.31 122.894 285.814 129.176L291.257 196.999M291.257 196.999L292.211 215.128L312.248 220.376C309.545 217.673 300.56 213.458 298.174 209.88C296.103 206.774 292.879 202.724 291.257 196.999Z" stroke="#343434" stroke-width="2.8625"/>
<path d="M240.212 205.109L238.884 209.761M201.33 351.813L200.389 344.755C200.38 344.69 200.385 344.624 200.403 344.561L214.608 294.801M201.33 351.813L304.403 382.687C304.654 382.762 304.797 383.026 304.724 383.278L293.841 420.513M201.33 351.813L170.558 341.078M201.33 351.813L190.282 386.64M162.209 475.139L210.793 470.873C210.985 470.856 211.148 470.725 211.206 470.541L221.962 436.495M162.209 475.139L144.045 469.084C143.799 469.002 143.664 468.739 143.74 468.491L148.45 453.193M162.209 475.139L167.279 459.156M334.197 228.248L330.673 239.459M334.197 228.248L348.748 231.119M334.197 228.248L323.94 225.003M280.526 466.074L258.452 471.592C258.09 471.683 257.769 471.342 257.881 470.986L264.075 451.284M280.526 466.074L282.896 457.964M280.526 466.074L307.022 464.181C307.162 464.171 307.29 464.1 307.373 463.987L313.086 456.175M218.353 281.681L255.111 296.797C255.324 296.884 255.444 297.112 255.396 297.337L253.093 308.159M218.353 281.681L214.608 294.801M218.353 281.681L237.556 214.413M253.093 308.159L261.453 311.499M253.093 308.159L239.019 303.274M261.453 311.499L255.914 329.032M261.453 311.499L304.274 323.426M261.453 311.499L268.085 290.507M214.608 294.801L239.019 303.274M239.019 303.274L227.478 337.539C227.396 337.783 227.522 338.049 227.764 338.138L250.375 346.565M250.375 346.565L269.308 352.688C269.461 352.737 269.628 352.706 269.753 352.606L275.333 348.142C275.448 348.05 275.6 348.016 275.744 348.052L295.049 352.767M250.375 346.565L255.914 329.032M250.375 346.565L232.513 403.099M295.049 352.767L298.274 342.509M295.049 352.767L275.516 414.895M255.914 329.032L298.274 342.509M298.274 342.509L304.274 323.426M304.274 323.426L310.609 303.274M268.085 290.507L310.609 303.274M268.085 290.507L269.065 287.406M310.609 303.274L325.848 307.97M310.609 303.274L330.673 239.459M353.996 335.83L363.061 338.081M353.996 335.83L343.028 319.848M353.996 335.83L349.829 353.959M385.245 357.299L389.372 345.148C389.462 344.883 389.306 344.599 389.035 344.531L363.061 338.081M293.841 420.513L275.516 414.895M293.841 420.513L282.896 457.964M293.841 420.513L310.343 425.847M275.516 414.895L264.075 451.284M255.914 407.87L232.513 403.099M232.513 403.099L190.282 386.64M232.513 403.099L221.962 436.495M190.282 386.64L171.006 381.511C170.757 381.445 170.499 381.589 170.426 381.837L159.823 417.65M190.282 386.64L178.705 423.136M148.45 453.193L167.279 459.156M148.45 453.193L159.823 417.65M167.279 459.156L178.705 423.136M159.823 417.65L178.705 423.136M178.705 423.136L221.962 436.495M221.962 436.495L264.075 451.284M264.075 451.284L282.896 457.964M151.952 380.199L145.082 378.291M72.7557 356.822L114.143 369.107M72.7557 356.822L61.1179 392.365M72.7557 356.822L74.8063 350.143M37.4516 464.643L40.2634 456.055M-27.9089 462.496V452.787C-27.9089 452.74 -27.9019 452.693 -27.8882 452.648L-23.0395 436.716C-22.9624 436.463 -22.6933 436.321 -22.4404 436.4L7.39531 445.752M40.2634 456.055L49.48 427.907M40.2634 456.055L7.39531 445.752M5.24844 420.035L7.22364 415.646C7.32188 415.428 7.56669 415.316 7.79596 415.385L38.4057 424.58M49.48 427.907L38.4057 424.58M49.48 427.907L61.1179 392.365M10.7349 464.643V458.026C10.7349 457.842 10.6294 457.675 10.4637 457.595L5.59308 455.266C5.39163 455.17 5.28396 454.946 5.33394 454.729L7.39531 445.752M7.39531 445.752L9.64194 440.403C9.72416 440.208 9.92584 440.09 10.1367 440.114L26.0109 441.955C26.1557 441.971 26.3002 441.921 26.4032 441.818L34.7593 433.462C34.8044 433.417 34.84 433.363 34.864 433.304L38.4057 424.58M207.055 2.82604H182.597C182.389 2.82604 182.204 2.96178 182.142 3.16108L179.94 10.2208M207.055 2.82604L190.645 51.0115M207.055 2.82604H226.854M180.815 79.875L190.645 51.0115M180.815 79.875L199.418 85.3615M180.815 79.875L125.712 62.8887M-76.0943 0.679167L43.1766 37.446M-76.0943 0.679167L-106.925 -3.02978C-107.305 -3.07554 -107.582 -2.67687 -107.405 -2.33666L-95.587 20.4781M-76.0943 0.679167L-9.30261 -0.605288M43.1766 37.446L50.6434 16.6482C50.7344 16.3945 50.5974 16.1158 50.3409 16.033L-1.59334 -0.727579C-1.64361 -0.743802 -1.69623 -0.751565 -1.74904 -0.750549L-9.30261 -0.605288M43.1766 37.446L125.712 62.8887M43.1766 37.446L32.8 59.4954M-80.388 49.8188L22.0275 81.4226C22.2546 81.4927 22.4987 81.3849 22.5999 81.1699L32.8 59.4954M-80.388 49.8188L-64.6232 79.875M-80.388 49.8188L-95.587 20.4781M-54.8641 98.4813L-64.6232 79.875M-64.6232 79.875L-39.3589 88.1197M137.461 146.428L130.244 169.567L117.502 211.073M137.461 146.428L148.248 111.84M137.461 146.428L162.686 153.914M137.461 146.428L116.17 139.615M51.8613 79.875L40.697 114.964C40.6172 115.215 40.7556 115.483 41.0062 115.563L59.3974 121.448M51.8613 79.875L57.8571 61.0302M51.8613 79.875L70.1318 85.934M148.248 111.84L153.902 93.7104M148.248 111.84L127.143 104.841M57.8571 61.0302L65.3366 37.5224C65.3527 37.4719 65.3771 37.4243 65.4089 37.3818L74.2834 25.4875M57.8571 61.0302L153.902 93.7104M153.902 93.7104L178.907 101.479M153.902 93.7104L167.219 51.0115M219.936 114.225L201.386 154.655C201.349 154.735 201.291 154.803 201.219 154.852L190.357 162.172M219.936 114.225L178.907 101.479M219.936 114.225L230.153 94.426M190.357 162.172L203.477 129.73M190.357 162.172L188.328 168.135M182.485 185.31L188.328 168.135M176.044 157.878L162.686 153.914M162.686 153.914L178.907 101.479M162.686 153.914V156.397C162.686 157.268 163.277 158.029 164.121 158.245L172.943 160.502M277.424 2.82604H246.653M277.424 2.82604L298.655 7.11979M277.424 2.82604L267.453 22.1479M169.45 43.8552L190.645 51.0115M169.45 43.8552L173.245 31.6896M169.45 43.8552L167.219 51.0115M190.645 51.0115L209.44 57.2947M243.448 68.6635L230.153 94.426M243.448 68.6635L227.808 63.4349M243.448 68.6635L252.066 51.9656M230.153 94.426L217.073 90.5685M199.418 85.3615L209.44 57.2947M199.418 85.3615L217.073 90.5685M209.44 57.2947L227.808 63.4349M209.44 57.2947L222.202 17.3771M226.854 2.82604H246.653M226.854 2.82604L222.202 17.3771M217.073 90.5685L227.808 63.4349M227.808 63.4349L240.645 22.1479M246.653 2.82604L240.645 22.1479M252.066 51.9656L270.532 61.0302M252.066 51.9656L267.453 22.1479M293.407 71.526L273.69 62.5807M74.2834 25.4875L92.2244 1.44155C92.4592 1.12689 92.2346 0.679167 91.842 0.679167H78.7495C78.5827 0.679167 78.4279 0.766362 78.3415 0.909104L27.244 85.2793C27.2112 85.3335 27.1895 85.3938 27.1802 85.4565L25.2911 98.2079C25.2877 98.2311 25.2859 98.2545 25.2859 98.2779V108.558C25.2859 108.882 24.9692 109.112 24.6608 109.012L-39.3589 88.1197M74.2834 25.4875L97.087 32.56M125.712 62.8887L131.074 43.5858C131.144 43.3372 131.003 43.0788 130.756 43.0024L97.087 32.56M97.087 32.56L104.371 11.4135M179.94 10.2208C174.745 7.7559 164.26 2.82604 163.879 2.82604C163.499 2.82604 126.8 1.88349 108.163 1.40358C107.955 1.39822 107.775 1.52857 107.707 1.72535L104.371 11.4135M179.94 10.2208L173.245 31.6896M104.371 11.4135L173.245 31.6896M141.933 43.1396L167.219 51.0115M59.3974 121.448L70.1318 85.934M59.3974 121.448L77.7651 127.326M70.1318 85.934L88.738 92.1044M77.7651 127.326L88.738 92.1044M77.7651 127.326L97.087 133.509M88.738 92.1044L108.298 98.5912M97.087 133.509L108.298 98.5912M97.087 133.509L116.17 139.615M108.298 98.5912L127.143 104.841M116.17 139.615L127.143 104.841M-95.587 20.4781L32.8 59.4954M-9.30261 -0.605288C-9.87511 0.422276 -29.5786 58.9728 -39.3589 88.1197M-39.3589 88.1197L-73.2089 193.35C-73.224 193.397 -73.2318 193.446 -73.2318 193.496V208.449M-73.2318 208.449L-58.2036 203.201M-73.2318 208.449L-77.999 222.284M-95.1776 272.14L-84.1636 240.175M-58.2036 203.201L-44.0552 187.638C-43.9522 187.524 -43.801 187.467 -43.6488 187.485L-24.8558 189.599C-24.8239 189.602 -24.7924 189.609 -24.7619 189.619L75.8568 222.284M-58.2036 203.201L20.2766 229.259M103.441 256.873L20.2766 229.259M103.441 256.873L101.537 263.075M103.441 256.873L114.143 222.014M97.087 162.172C95.1786 163.699 91.68 171.236 90.1693 174.815M90.1693 174.815L43.1769 156.632C42.9189 156.532 42.6302 156.672 42.5488 156.936L34.3985 183.402M90.1693 174.815L93.9859 176.075M20.2766 229.259L13.4781 250.699M20.2766 229.259L34.3985 183.402M-17.6516 337.023C-16.8036 335.327 -14.6418 328.484 -12.2681 320.564M6.67969 272.14L-5.4674 297.148C-5.47974 297.174 -5.48961 297.2 -5.49727 297.227C-7.18866 303.226 -9.83926 312.459 -12.2681 320.564M6.67969 272.14L13.4781 250.699M6.67969 272.14L25.5245 278.103M6.67969 272.14L-42.1316 254.965M56.2964 266.176L13.4781 250.699M13.4781 250.699L-77.999 222.284M-77.999 222.284L-84.1636 240.175M-84.1636 240.175L-42.1316 254.965M-50.5703 281.204L-42.1316 254.965M-9.54115 169.567L34.3985 183.402M34.3985 183.402L77.7651 197.953M116.17 183.402L93.9859 176.075M101.537 263.075L123.985 267.754M101.537 263.075L82.1297 326.289M127.859 268.561L141.933 272.14M127.859 268.561L117.84 303.274M127.859 268.561L123.985 267.754M141.933 272.14H155.53M141.933 272.14L150.759 247.57M155.53 272.14L160.011 275.276C160.183 275.397 160.256 275.616 160.19 275.816L142.062 331.143C141.988 331.369 141.759 331.506 141.525 331.464L127.859 329.032M155.53 272.14L166.122 237.537C166.2 237.282 166.471 237.141 166.725 237.222L193.696 245.9M127.859 329.032L114.143 369.107M127.859 329.032L141.933 278.103M114.143 369.107L118.556 370.417M173.182 209.165L161.609 206.33C161.533 206.312 161.454 206.312 161.378 206.332L142.807 211.073M127.859 214.89L120.226 222.284M127.859 214.89L131.954 219.667C132.075 219.808 132.103 220.007 132.025 220.177L127.859 229.259M127.859 214.89L135.015 192.705M127.859 214.89L130.96 214.098M120.226 222.284L114.143 222.014M120.226 222.284L127.859 229.259M114.143 222.014L117.502 211.073M114.143 264.506L122.83 237.134C122.843 237.094 122.861 237.056 122.883 237.021L127.859 229.259M127.859 229.259L132.087 239.304C132.13 239.405 132.136 239.517 132.106 239.621L123.985 267.754M95.6557 197.953L101.455 205.01C101.509 205.075 101.578 205.125 101.657 205.154L117.502 211.073M246.653 171.952L242.432 165.347C241.644 164.112 240.279 163.365 238.814 163.365H232.647C231.218 163.365 230.007 162.31 229.811 160.895L229.023 155.201C228.231 149.482 229.158 143.657 231.685 138.466L235.196 131.257C236.462 128.659 238.198 126.317 240.317 124.352L240.432 124.246C242.427 122.395 244.085 120.209 245.329 117.788L256.473 96.0958M246.653 171.952L252.269 160.486C252.337 160.347 252.333 160.182 252.258 160.046L245.528 147.821C244.201 145.409 243.924 142.557 244.763 139.935L248.799 127.326M246.653 171.952L231.731 182.211C231.533 182.346 231.266 182.315 231.106 182.137L220.652 170.521M273.69 62.5807L270.532 61.0302M273.69 62.5807L256.473 96.0958M270.532 61.0302L277.424 45.2865L288.703 25.0104M298.655 7.11979L320.939 16.0335C321.156 16.1204 321.405 16.0368 321.525 15.836L324.894 10.2208M298.655 7.11979L288.703 25.0104M324.894 10.2208L329.79 -5.63111C329.856 -5.84623 330.064 -5.98562 330.288 -5.96551L345.409 -4.6094M324.894 10.2208L342.75 16.1844M445.596 50.5344L440.529 62.1659C440.428 62.3984 440.526 62.6697 440.753 62.7831L443.927 64.3698M445.596 50.5344L342.75 16.1844M445.596 50.5344L450.009 36.5769M443.927 64.3698L439.355 79.6365M443.927 64.3698L352.163 37.4366C352.113 37.422 352.066 37.3994 352.024 37.3697L342.546 30.7354M431.284 112.555V106.662C431.284 106.615 431.291 106.569 431.304 106.525L439.355 79.6365M431.284 112.555L403.852 111.84M431.284 112.555H471.738C471.803 112.555 471.867 112.542 471.926 112.516L497.36 101.582L567.603 62.925C567.949 62.7348 567.927 62.2312 567.567 62.071L553.417 55.7823L536.481 50.0573L454.422 22.6194M403.852 111.84L402.659 123.29M403.852 111.84L409.577 97.5271M402.659 123.29H394.787M402.659 123.29L416.256 124.114M394.787 123.29L392.884 146.6C392.88 146.644 392.871 146.688 392.855 146.729L388.669 157.878M394.787 123.29H364.731M370.933 205.109L375.49 209.211C375.622 209.329 375.677 209.51 375.634 209.682L369.263 235.166M370.933 205.109L343.739 196.164M370.933 205.109L375.098 194.017M369.263 235.166L404.329 245.661M369.263 235.166L348.748 231.119M333.482 127.822L338.491 116.372L341.354 106.83M333.482 127.822L329.673 141.18M333.482 127.822L351.611 133.785M341.354 106.83L312.49 58.1677M341.354 106.83L350.599 116.313C350.637 116.352 350.682 116.384 350.731 116.408L364.731 123.29M312.49 58.1677L306.521 53.9675C306.276 53.7952 305.935 53.8884 305.812 54.1613L303.137 60.0845C302.969 60.456 303.315 60.8532 303.706 60.7387L312.49 58.1677ZM364.731 123.29L360.191 137.364M352.804 160.264L351.611 174.576M352.804 160.264C344.375 157.64 327.31 152.392 326.476 152.392M352.804 160.264L374.511 166.943M352.804 160.264L355.882 150.722M351.611 174.576L343.739 196.164M351.611 174.576L323.007 164.557M351.611 174.576L379.263 182.925M343.739 196.164L316.981 187.362C316.737 187.282 316.601 187.024 316.671 186.778L323.007 164.557M323.007 164.557L326.476 152.392M379.263 182.925L381.592 176.723M379.263 182.925L375.098 194.017M326.476 152.392L329.673 141.18M380.474 157.878L355.882 150.722M355.882 150.722L329.673 141.18M355.882 150.722L358.267 143.327M381.592 176.723L383.941 178.089C384.014 178.132 384.097 178.154 384.181 178.154H402.128C402.164 178.154 402.199 178.158 402.234 178.166L413.54 180.757C413.601 180.771 413.658 180.797 413.709 180.832L417.687 183.641M381.592 176.723L388.669 157.878M417.687 183.641L416.256 194.375M417.687 183.641L419.595 162.41M416.256 194.375L431.761 198.669M416.256 194.375L410.872 208.685M407.191 218.468L404.329 245.661M407.191 218.468L387.631 212.027M407.191 218.468L407.999 216.321M404.329 245.661L424.759 252.626C425.047 252.725 425.353 252.531 425.387 252.228L426.99 238.028M419.595 162.41L426.274 124.721M419.595 162.41L388.669 157.878M426.274 124.721L452.991 125.914M426.274 124.721L416.256 124.114M452.991 125.914H475.414M452.991 125.914L431.761 198.669M475.414 125.914V133.474C475.414 133.522 475.407 133.57 475.392 133.617L457.177 191.751M475.414 125.914L502.369 123.917M452.991 205.109L431.761 198.669M452.991 205.109L465.634 208.685M452.991 205.109L457.177 191.751M412.439 143.327L416.239 129.554C416.25 129.513 416.256 129.47 416.256 129.427V124.114M375.942 147.859L358.267 143.327M358.267 143.327L360.191 137.364M377.373 140.226L367.419 137.382C367.376 137.37 367.332 137.364 367.288 137.364H360.191M384.053 193.421L375.098 194.017M410.872 208.685L422.119 211.997C422.185 212.017 422.246 212.051 422.298 212.096L426.036 215.367M410.872 208.685L407.999 216.321M426.036 215.367L421.954 226.101M426.036 215.367L431.205 214.505C431.496 214.457 431.761 214.681 431.761 214.976V223.141C431.761 223.205 431.748 223.269 431.723 223.328L427.028 234.36C427.003 234.42 426.99 234.483 426.99 234.547V238.028M426.99 238.028L419.875 232.52C419.709 232.391 419.646 232.169 419.721 231.973L421.954 226.101M407.999 216.321C407.857 216.697 410.509 219.582 411.906 221.034C411.944 221.073 411.987 221.104 412.035 221.128L421.954 226.101M455.138 246.854L452.13 261.432C452.078 261.683 452.234 261.931 452.484 261.992L476.845 267.956M455.138 246.854L471.651 251.572C471.77 251.606 471.897 251.593 472.006 251.535L479.137 247.746C479.332 247.643 479.572 247.687 479.718 247.852L480.185 248.381M455.138 246.854L456.647 241.368M465.634 208.685C466.206 208.685 471.756 209.164 474.46 209.403M465.634 208.685L456.647 241.368M474.46 209.403L483.763 212.475M474.46 209.403L502.369 123.917M525.031 226.101L518.576 246.854M525.031 226.101L509.526 220.981M525.031 226.101L558.483 134.996C558.581 134.731 558.428 134.44 558.154 134.37L514.134 123.071C514.083 123.058 514.031 123.053 513.98 123.057L502.369 123.917M481.855 255.203L482.961 251.886C483.014 251.724 482.978 251.547 482.866 251.419L480.185 248.381M481.855 255.203L478.917 257.237C478.812 257.309 478.741 257.42 478.719 257.545L476.845 267.956M481.855 255.203L502.133 261.73C502.392 261.813 502.668 261.664 502.74 261.401L505.947 249.693M476.845 267.956L509.09 275.85C509.335 275.91 509.584 275.769 509.659 275.528L516.499 253.533M480.185 248.381L483.763 241.845M483.763 241.845L489.011 223.239M483.763 241.845L491.433 244.326C491.678 244.406 491.942 244.276 492.029 244.033L498.314 226.425M489.011 223.239L483.237 221.16C483.116 221.116 483.017 221.026 482.964 220.908L481.855 218.468M489.011 223.239L498.314 226.425M481.855 218.468L483.763 212.475M481.855 218.468L477.294 219.836C477.161 219.876 477.051 219.972 476.995 220.1L473.615 227.762C473.547 227.915 473.404 228.022 473.238 228.043L470.039 228.443C469.831 228.469 469.664 228.626 469.629 228.832C469.378 230.281 468.973 232.793 468.973 233.496M483.763 212.475L495.69 216.413M506.424 229.202L505.947 231.11M506.424 229.202L498.314 226.425M506.424 229.202L509.526 220.981M505.947 231.11L512.693 233.359C512.926 233.437 513.062 233.678 513.007 233.918L511.237 241.663C511.21 241.78 511.141 241.882 511.042 241.95L507.379 244.469M505.947 231.11L504.577 234.45M507.379 244.469L518.576 246.854M507.379 244.469L505.947 249.693M502.131 240.414L504.577 234.45M518.576 246.854L516.499 253.533M505.947 249.693L516.499 253.533M502.131 249.693L507.885 235.906C507.996 235.64 507.848 235.337 507.569 235.262L504.577 234.45M509.526 220.981L495.69 216.413M490.919 205.586L497.422 207.829C497.657 207.91 497.79 208.157 497.729 208.397L495.69 216.413M443.449 233.496L442.607 236.865C442.545 237.115 442.691 237.369 442.939 237.44L456.647 241.368M448.936 188.65L457.177 191.751M377.135 -1.76401L383.043 -1.23416C383.08 -1.23084 383.116 -1.22322 383.151 -1.21144L454.422 22.6194M377.135 -1.76401L373.025 10.6979M377.135 -1.76401L345.409 -4.6094M360.676 56.2594V48.2256C360.676 48.1748 360.684 48.1244 360.7 48.0762L373.025 10.6979M360.676 56.2594L364.068 54.4498C364.186 54.3869 364.325 54.3764 364.452 54.4209L417.687 73.1958M360.676 56.2594L332.051 59.8375M360.676 56.2594L366.5 78.6823M409.577 97.5271L370.542 93.0322C370.346 93.0097 370.185 92.869 370.135 92.6782L366.5 78.6823M409.577 97.5271C409.983 96.3068 412.662 88.2706 415.063 81.0677M417.687 73.1958C419.023 73.9592 432.689 77.8076 439.355 79.6365M417.687 73.1958C416.973 75.3366 416.041 78.133 415.063 81.0677M332.051 59.8375L348.271 94.6646M332.051 59.8375V53.7212C332.051 53.6645 332.061 53.6082 332.08 53.555L338.94 35.1056C338.959 35.055 338.986 35.008 339.02 34.9665L342.546 30.7354M366.5 78.6823C366.993 78.8731 391.606 80.8292 403.852 81.7833L415.063 81.0677M342.546 30.7354L342.75 16.1844M454.422 22.6194L450.009 36.5769M450.009 36.5769L373.025 10.6979M342.069 7.11979L345.409 -4.6094M297.939 30.0198L288.703 25.0104M260.965 18.5698C261.156 18.7606 265.37 21.0347 267.453 22.1479M232.34 19.524L234.983 18.643C235.122 18.5968 235.274 18.6166 235.396 18.6969L240.645 22.1479M226.854 19.524C225.518 19.524 223.196 18.0927 222.202 17.3771M280.526 98.2427L278.327 101.979C278.217 102.167 277.994 102.256 277.785 102.196L256.473 96.0958M199.421 176.484L195.198 171.322C195.152 171.266 195.093 171.221 195.027 171.19L188.328 168.135M244.983 280.966H254.154C254.24 280.966 254.325 280.989 254.399 281.033L261.399 285.227C261.435 285.248 261.474 285.265 261.514 285.277L269.065 287.406M269.065 287.406L277.656 260.213M260.011 254.488C261.165 254.869 272.255 258.463 277.656 260.213M277.656 260.213L291.832 215.345C291.911 215.093 292.179 214.954 292.431 215.034L323.94 225.003M219.936 210.357H221.784C221.824 210.357 221.864 210.362 221.903 210.372L237.556 214.413M237.556 214.413L238.884 209.761M192.981 197.953C186.222 195.727 172.609 191.274 172.228 191.274C171.846 191.274 170.001 189.525 169.127 188.65M169.127 188.65V183.751C169.127 183.543 168.992 183.359 168.794 183.296L144.224 175.489C143.917 175.391 143.603 175.621 143.603 175.944V179.24C143.603 179.31 143.618 179.38 143.648 179.443L145.419 183.208C145.478 183.331 145.586 183.424 145.717 183.462L163.486 188.663C164.532 188.969 165.629 189.061 166.712 188.934L169.127 188.65ZM140.74 194.136L137.48 204.095C137.467 204.135 137.449 204.173 137.426 204.208L130.96 214.098M130.96 214.098L142.807 211.073M141.933 204.155L140.854 206.097C140.782 206.226 140.775 206.382 140.834 206.518L142.807 211.073M90.8849 184.118L93.9859 176.075M118.556 370.417L111.694 386.983C111.657 387.07 111.648 387.166 111.666 387.259L112.499 391.42C112.55 391.678 112.802 391.846 113.06 391.794L118.424 390.721C118.51 390.704 118.599 390.711 118.682 390.741L137.664 397.686C137.913 397.777 138.189 397.647 138.278 397.398L145.082 378.291M118.556 370.417L145.082 378.291M84.2057 395.466L81.6658 401.469C81.6124 401.595 81.5073 401.693 81.3773 401.736L78.2161 402.79C78.0815 402.834 77.9339 402.817 77.8134 402.742L61.1179 392.365M61.1179 392.365L45.9523 388.113C45.8537 388.086 45.7667 388.027 45.704 387.946L38.4904 378.638C38.4351 378.567 38.3607 378.513 38.2757 378.482L24.7329 373.579C24.6278 373.541 24.5395 373.467 24.4832 373.37L22.9005 370.657M7.39531 387.117L11.3591 370.562C11.4122 370.34 11.615 370.187 11.8429 370.197L22.9005 370.657M22.9005 370.657L27.1183 354.021C27.1645 353.838 27.3136 353.7 27.499 353.668L32.4077 352.814C32.5765 352.785 32.7166 352.667 32.7747 352.506L37.9286 338.216M37.9286 338.216L74.8063 350.143M37.9286 338.216L28.6255 334.944M74.8063 350.143C75.4362 350.143 80.6921 348.199 83.4752 347.138C83.6325 347.078 83.7462 346.94 83.7748 346.774L86.0848 333.376C86.1037 333.266 86.0836 333.153 86.028 333.057L82.1297 326.289M74.8063 350.143L82.1297 326.289M-12.2681 320.564L28.6255 334.944M33.6349 298.618V321.432C33.6349 321.489 33.6247 321.545 33.6048 321.598L28.6255 334.944M303.426 446.514L310.343 425.847M310.343 425.847L318.859 428.6C318.907 428.615 318.956 428.623 319.006 428.623H334.361C334.411 428.623 334.46 428.615 334.507 428.6L361.424 419.94C361.671 419.86 361.809 419.598 361.736 419.35L359.999 413.49C359.974 413.403 359.973 413.31 359.998 413.222L364.887 396.228C364.937 396.054 364.884 395.865 364.749 395.743L360.914 392.265M334.436 433.871L318.931 448.183M318.931 448.183L313.086 456.175M318.931 448.183L359.279 461.542M313.086 456.175L314.564 463.788C314.606 464.008 314.797 464.169 315.022 464.174L358.29 465.12M358.29 465.12L359.279 461.542M358.29 465.12L445.447 467.407C446.007 467.422 446.13 466.627 445.592 466.472L364.39 443.055M369.502 424.568L364.39 443.055M359.279 461.542L364.39 443.055M418.641 418.843L437.34 360.38C437.42 360.128 437.281 359.858 437.028 359.779L429.209 357.322C429.161 357.307 429.116 357.284 429.076 357.255L421.793 352.087C421.759 352.063 421.722 352.044 421.683 352.029L404.567 345.681M364.969 335.83L370.756 333.284C370.869 333.234 370.998 333.23 371.114 333.273L404.567 345.681M364.969 335.83L363.061 338.081M364.969 335.83L369.979 320.564M358.529 357.299L351.37 370.896M346.84 379.5L344.662 377.524C344.534 377.408 344.479 377.232 344.517 377.064L349.829 353.959M346.84 379.5L351.37 370.896M346.84 379.5L360.914 392.265M351.37 370.896L361.755 372.312C361.829 372.322 361.9 372.349 361.962 372.392L364.726 374.306C364.875 374.409 364.953 374.587 364.927 374.767L363.071 387.526C363.064 387.571 363.051 387.615 363.032 387.656L360.914 392.265M411.723 376.621L396.694 372.459C396.434 372.387 396.285 372.114 396.366 371.856L404.567 345.681M334.197 326.527L335.272 323.732C335.343 323.548 335.52 323.426 335.718 323.426H338.788C338.904 323.426 339.016 323.384 339.103 323.307L343.028 319.848M343.028 319.848L337.392 311.636C337.332 311.547 337.242 311.482 337.14 311.45L325.848 307.97M319.169 347.996L320.512 351.128C320.568 351.259 320.68 351.359 320.817 351.398L340.961 357.254C341.061 357.283 341.168 357.279 341.265 357.242L349.829 353.959M323.94 314.839C323.94 314.075 325.212 309.942 325.848 307.97M330.673 239.459L336.26 234.524C336.316 234.475 336.381 234.44 336.452 234.421L348.748 231.119M330.673 239.459L329.209 232.402C329.195 232.337 329.168 232.275 329.129 232.221L323.94 225.003M297.223 195.329L302.996 197.105C303.237 197.18 303.379 197.429 303.319 197.674L301.324 205.879C301.295 205.997 301.222 206.1 301.119 206.167L297.597 208.446C297.387 208.582 297.107 208.532 296.956 208.331L293.708 204C293.667 203.945 293.638 203.882 293.623 203.814L291.976 196.164M297.223 195.329L291.976 196.164M297.223 195.329L294.361 155.97M291.976 196.164L289.381 157.127C289.364 156.878 289.542 156.658 289.789 156.623L294.361 155.97M294.361 155.97H310.582M243.074 226.34C243.258 225.421 246.549 216.92 248.355 212.312C248.463 212.037 248.297 211.733 248.008 211.673L238.884 209.761" stroke="#343434" stroke-width="0.954167" stroke-linecap="round"/>
<path d="M69.5394 160.541L71.5729 158.178L71.9048 158.282L69.4569 161.139C68.9684 161.706 68.4428 161.878 67.8803 161.656L67.9736 161.361C68.3888 161.545 68.7804 161.425 69.1486 161.002L69.2743 160.856L68.7672 157.292L69.0991 157.397L69.5394 160.541ZM71.9709 159.63L74.0948 160.301L73.1423 163.318L72.8406 163.222L73.6997 160.501L72.1792 160.021L71.7201 161.475C71.5703 161.95 71.3778 162.259 71.1426 162.401C70.9074 162.544 70.6287 162.551 70.3064 162.422L70.396 162.139C70.635 162.236 70.8349 162.226 70.9958 162.109C71.1607 161.993 71.3016 161.75 71.4185 161.38L71.9709 159.63ZM74.5364 163.181L77.2479 161.296L77.5134 161.38L76.5609 164.397L76.2532 164.3L77.0399 161.808L74.3344 163.694L74.0689 163.61L75.0214 160.593L75.3231 160.689L74.5364 163.181ZM80.8765 162.442L80.0174 165.163L80.5001 165.315L80.1515 166.42L79.8438 166.322L80.099 165.514L77.4924 164.691L78.4449 161.674L78.7466 161.769L77.8874 164.491L79.7097 165.066L80.5688 162.345L80.8765 162.442ZM84.3433 164.286L84.5586 163.604L84.8663 163.701L83.9138 166.718L83.6061 166.621L83.8214 165.939C83.615 166.131 83.3782 166.257 83.111 166.319C82.8439 166.381 82.5695 166.367 82.2879 166.278C81.8615 166.143 81.5411 165.876 81.3266 165.477C81.1174 165.075 81.0826 164.652 81.2223 164.21C81.362 163.767 81.6323 163.443 82.0333 163.238C82.4355 163.029 82.8519 162.992 83.2823 163.128C83.5638 163.217 83.7963 163.364 83.9797 163.567C84.163 163.771 84.2842 164.011 84.3433 164.286ZM81.6105 165.334C81.7811 165.662 82.0455 165.883 82.4035 165.996C82.7575 166.108 83.0985 166.078 83.4266 165.908C83.7495 165.74 83.9681 165.475 84.0824 165.113C84.1966 164.751 84.1698 164.408 84.0019 164.085C83.8313 163.757 83.5689 163.537 83.215 163.426C82.857 163.313 82.5139 163.341 82.1858 163.512C81.8629 163.68 81.6443 163.945 81.53 164.307C81.4158 164.669 81.4426 165.011 81.6105 165.334ZM87.4565 163.192L90.4372 164.133L90.3419 164.435L89.0145 164.016L87.7763 167.938L87.4505 167.835L88.6887 163.913L87.3612 163.494L87.4565 163.192ZM90.4874 168.429L92.385 166.075L92.7108 166.178L90.3674 169.061C90.1515 169.325 89.9103 169.507 89.6438 169.609C89.3772 169.71 89.1224 169.712 88.8794 169.613L88.9689 169.329C89.1529 169.405 89.343 169.406 89.5393 169.33C89.7355 169.255 89.9194 169.114 90.0908 168.907L90.2086 168.765L89.7905 165.256L90.1163 165.359L90.4874 168.429ZM94.8724 166.787C95.3068 166.925 95.6266 167.194 95.8318 167.595C96.0422 167.993 96.0776 168.413 95.9379 168.856C95.7982 169.298 95.5273 169.624 95.125 169.833C94.7281 170.04 94.3124 170.074 93.878 169.937C93.5924 169.847 93.3559 169.699 93.1685 169.494C92.9864 169.286 92.8712 169.042 92.8226 168.761L92.2207 170.668L91.919 170.573L93.2524 166.349L93.5541 166.444L93.3332 167.144C93.5341 166.942 93.7681 166.81 94.0353 166.749C94.3077 166.684 94.5868 166.697 94.8724 166.787ZM93.1583 168.98C93.329 169.308 93.5933 169.529 93.9513 169.642C94.3053 169.753 94.6464 169.724 94.9745 169.553C95.3026 169.383 95.5232 169.118 95.6362 168.76C95.7493 168.402 95.7204 168.059 95.5498 167.731C95.3791 167.403 95.1168 167.183 94.7628 167.071C94.4048 166.958 94.0617 166.987 93.7336 167.158C93.4108 167.326 93.1922 167.591 93.0779 167.953C92.9636 168.315 92.9904 168.657 93.1583 168.98ZM99.581 169.097L99.7963 168.415L100.104 168.512L99.1516 171.529L98.8438 171.432L99.0591 170.75C98.8527 170.941 98.6159 171.068 98.3487 171.13C98.0816 171.191 97.8072 171.178 97.5256 171.089C97.0992 170.954 96.7788 170.687 96.5643 170.287C96.3551 169.885 96.3204 169.463 96.46 169.02C96.5997 168.578 96.8701 168.254 97.271 168.049C97.6733 167.84 98.0896 167.803 98.52 167.939C98.8016 168.028 99.034 168.174 99.2174 168.378C99.4007 168.582 99.522 168.822 99.581 169.097ZM96.8482 170.145C97.0189 170.473 97.2832 170.694 97.6412 170.807C97.9952 170.918 98.3362 170.889 98.6644 170.718C98.9872 170.55 99.2058 170.285 99.3201 169.923C99.4344 169.561 99.4076 169.219 99.2397 168.896C99.069 168.568 98.8067 168.348 98.4527 168.236C98.0947 168.123 97.7516 168.152 97.4235 168.323C97.1006 168.491 96.8821 168.756 96.7678 169.118C96.6535 169.48 96.6803 169.822 96.8482 170.145ZM102.65 169.243C103.085 169.38 103.405 169.649 103.61 170.05C103.82 170.448 103.856 170.869 103.716 171.311C103.576 171.754 103.305 172.079 102.903 172.289C102.506 172.495 102.09 172.53 101.656 172.393C101.37 172.302 101.134 172.155 100.946 171.95C100.764 171.742 100.649 171.497 100.601 171.217L99.9987 173.123L99.697 173.028L101.03 168.805L101.332 168.9L101.111 169.6C101.312 169.398 101.546 169.266 101.813 169.204C102.086 169.14 102.365 169.153 102.65 169.243ZM100.936 171.436C101.107 171.764 101.371 171.984 101.729 172.097C102.083 172.209 102.424 172.18 102.752 172.009C103.081 171.838 103.301 171.574 103.414 171.216C103.527 170.858 103.498 170.515 103.328 170.187C103.157 169.859 102.895 169.639 102.541 169.527C102.183 169.414 101.84 169.443 101.512 169.613C101.189 169.781 100.97 170.046 100.856 170.408C100.742 170.77 100.768 171.113 100.936 171.436ZM107.359 171.552L107.574 170.87L107.882 170.968L106.93 173.985L106.622 173.887L106.837 173.206C106.631 173.397 106.394 173.523 106.127 173.585C105.86 173.647 105.585 173.633 105.304 173.544C104.877 173.41 104.557 173.143 104.342 172.743C104.133 172.341 104.098 171.918 104.238 171.476C104.378 171.034 104.648 170.71 105.049 170.505C105.451 170.295 105.868 170.259 106.298 170.395C106.58 170.483 106.812 170.63 106.995 170.834C107.179 171.038 107.3 171.277 107.359 171.552ZM104.626 172.6C104.797 172.929 105.061 173.149 105.419 173.262C105.773 173.374 106.114 173.344 106.442 173.174C106.765 173.006 106.984 172.741 107.098 172.379C107.212 172.017 107.186 171.674 107.018 171.352C106.847 171.023 106.585 170.804 106.231 170.692C105.873 170.579 105.53 170.608 105.201 170.778C104.879 170.946 104.66 171.211 104.546 171.573C104.431 171.935 104.458 172.278 104.626 172.6ZM110.858 170.58L112.294 171.034C112.672 171.153 112.947 171.377 113.118 171.705C113.288 172.033 113.314 172.384 113.196 172.758C113.078 173.132 112.855 173.405 112.527 173.575C112.204 173.743 111.852 173.767 111.47 173.646L110.353 173.294L109.845 174.905L109.525 174.804L110.858 170.58ZM110.449 172.992L111.565 173.345C111.85 173.435 112.118 173.415 112.366 173.286C112.615 173.156 112.785 172.947 112.877 172.657C112.969 172.364 112.951 172.092 112.822 171.844C112.692 171.595 112.485 171.425 112.199 171.335L111.083 170.983L110.449 172.992ZM113.832 174.133L114.725 174.415C115.006 174.504 115.214 174.665 115.349 174.897C115.487 175.131 115.514 175.383 115.429 175.653C115.344 175.922 115.177 176.113 114.929 176.225C114.686 176.338 114.423 176.35 114.142 176.261L112.947 175.884L113.899 172.867L114.201 172.963L113.832 174.133ZM115.602 176.722L116.554 173.706L116.856 173.801L115.903 176.818L115.602 176.722ZM113.342 175.684L114.235 175.966C114.432 176.028 114.613 176.021 114.779 175.945C114.95 175.866 115.064 175.736 115.121 175.555C115.181 175.366 115.162 175.195 115.065 175.04C114.973 174.883 114.828 174.773 114.631 174.711L113.738 174.429L113.342 175.684ZM118.191 177.613C117.736 177.469 117.406 177.199 117.199 176.802C116.993 176.405 116.96 175.983 117.101 175.537C117.242 175.09 117.511 174.764 117.908 174.558C118.305 174.351 118.731 174.32 119.185 174.463C119.479 174.556 119.722 174.71 119.915 174.926C120.109 175.137 120.223 175.379 120.257 175.651L119.964 175.717C119.936 175.496 119.844 175.299 119.686 175.126C119.533 174.953 119.335 174.829 119.094 174.753C118.736 174.64 118.393 174.669 118.065 174.839C117.742 175.007 117.523 175.272 117.409 175.634C117.293 176 117.319 176.345 117.487 176.667C117.655 176.99 117.92 177.209 118.282 177.323C118.524 177.399 118.757 177.411 118.981 177.358C119.21 177.306 119.405 177.2 119.566 177.039L119.772 177.269C119.578 177.465 119.338 177.594 119.052 177.659C118.767 177.72 118.48 177.704 118.191 177.613ZM121.335 176.807L122.523 178.908L122.113 178.778L120.983 176.789L120.514 178.273L120.212 178.178L121.165 175.161L121.466 175.256L121.034 176.626L122.993 175.738L123.415 175.872L121.335 176.807ZM124.274 179.095L126.172 176.742L126.498 176.845L124.154 179.728C123.938 179.991 123.697 180.174 123.431 180.276C123.164 180.377 122.909 180.379 122.666 180.28L122.756 179.996C122.94 180.072 123.13 180.072 123.326 179.997C123.522 179.922 123.706 179.781 123.878 179.574L123.996 179.432L123.577 175.923L123.903 176.026L124.274 179.095ZM127.183 177.061L129.306 177.731L128.354 180.748L128.052 180.653L128.911 177.932L127.391 177.452L126.932 178.906C126.782 179.381 126.589 179.689 126.354 179.832C126.119 179.974 125.84 179.981 125.518 179.853L125.608 179.569C125.847 179.667 126.047 179.657 126.208 179.54C126.372 179.424 126.513 179.181 126.63 178.811L127.183 177.061ZM130.641 181.544C130.199 181.404 129.87 181.134 129.656 180.735C129.447 180.333 129.412 179.91 129.552 179.468C129.691 179.025 129.962 178.701 130.363 178.496C130.765 178.287 131.189 178.253 131.636 178.394C132.074 178.532 132.398 178.803 132.607 179.205C132.822 179.604 132.859 180.025 132.719 180.468C132.581 180.906 132.308 181.231 131.901 181.443C131.496 181.647 131.076 181.681 130.641 181.544ZM129.94 180.592C130.111 180.92 130.375 181.141 130.733 181.254C131.087 181.366 131.428 181.336 131.756 181.166C132.079 180.998 132.297 180.733 132.412 180.371C132.526 180.009 132.499 179.666 132.331 179.343C132.161 179.015 131.898 178.795 131.544 178.683C131.186 178.57 130.843 178.599 130.515 178.77C130.192 178.938 129.974 179.203 129.859 179.565C129.745 179.927 129.772 180.269 129.94 180.592ZM135.319 181.235C135.638 181.46 135.738 181.757 135.622 182.127C135.543 182.377 135.397 182.552 135.184 182.652C134.974 182.754 134.723 182.759 134.429 182.666L132.969 182.205L133.922 179.189L135.267 179.613C135.549 179.702 135.745 179.846 135.854 180.044C135.97 180.24 135.99 180.454 135.917 180.688C135.815 181.009 135.616 181.192 135.319 181.235ZM135.174 179.909L134.13 179.579L133.801 180.623L134.844 180.953C135.037 181.014 135.199 181.014 135.329 180.953C135.458 180.892 135.55 180.777 135.603 180.609C135.654 180.448 135.641 180.306 135.565 180.185C135.493 180.061 135.363 179.969 135.174 179.909ZM133.364 182.005L134.523 182.371C134.724 182.434 134.894 182.435 135.033 182.373C135.172 182.31 135.269 182.193 135.324 182.02C135.377 181.851 135.362 181.702 135.279 181.574C135.2 181.443 135.063 181.347 134.866 181.285L133.707 180.919L133.364 182.005ZM139.419 181.674L139.635 180.992L139.942 181.089L138.99 184.106L138.682 184.009L138.898 183.327C138.691 183.519 138.454 183.645 138.187 183.707C137.92 183.768 137.646 183.755 137.364 183.666C136.938 183.531 136.617 183.264 136.403 182.865C136.194 182.463 136.159 182.04 136.298 181.598C136.438 181.155 136.709 180.831 137.109 180.626C137.512 180.417 137.928 180.38 138.358 180.516C138.64 180.605 138.872 180.752 139.056 180.955C139.239 181.159 139.36 181.399 139.419 181.674ZM136.687 182.722C136.857 183.05 137.122 183.271 137.48 183.384C137.834 183.496 138.175 183.466 138.503 183.296C138.826 183.128 139.044 182.863 139.159 182.501C139.273 182.139 139.246 181.796 139.078 181.473C138.907 181.145 138.645 180.925 138.291 180.813C137.933 180.7 137.59 180.729 137.262 180.9C136.939 181.068 136.721 181.333 136.606 181.695C136.492 182.057 136.519 182.399 136.687 182.722Z" fill="white"/>
<path d="M169.117 360.112L170.061 357.093L174.288 358.415L174.186 358.741L170.261 357.513L169.519 359.886L173.444 361.114L173.344 361.434L169.117 360.112ZM172.011 354.866C172.147 354.431 172.415 354.111 172.815 353.904C173.213 353.693 173.633 353.656 174.076 353.795C174.519 353.933 174.845 354.203 175.056 354.605C175.263 355.001 175.299 355.417 175.163 355.852C175.073 356.138 174.926 356.375 174.722 356.562C174.514 356.745 174.27 356.861 173.99 356.91L175.898 357.507L175.804 357.809L171.576 356.487L171.671 356.185L172.371 356.404C172.169 356.204 172.036 355.97 171.974 355.703C171.909 355.431 171.921 355.152 172.011 354.866ZM174.208 356.574C174.535 356.402 174.755 356.138 174.867 355.779C174.978 355.425 174.948 355.084 174.776 354.756C174.605 354.429 174.34 354.209 173.982 354.097C173.623 353.985 173.28 354.014 172.953 354.186C172.625 354.357 172.406 354.62 172.295 354.975C172.183 355.333 172.212 355.676 172.384 356.004C172.553 356.326 172.818 356.544 173.181 356.657C173.543 356.771 173.885 356.743 174.208 356.574ZM176.312 352.177C176.174 352.62 175.905 352.949 175.506 353.165C175.105 353.375 174.682 353.411 174.239 353.272C173.797 353.134 173.472 352.864 173.266 352.464C173.055 352.062 173.02 351.638 173.16 351.191C173.297 350.752 173.567 350.428 173.968 350.217C174.367 350.002 174.788 349.963 175.231 350.102C175.67 350.239 175.996 350.511 176.209 350.918C176.414 351.323 176.448 351.742 176.312 352.177ZM175.363 352.881C175.69 352.71 175.91 352.445 176.022 352.086C176.133 351.732 176.103 351.391 175.931 351.063C175.763 350.741 175.497 350.523 175.135 350.41C174.772 350.296 174.43 350.324 174.108 350.493C173.78 350.664 173.561 350.927 173.45 351.282C173.338 351.64 173.368 351.983 173.539 352.311C173.708 352.633 173.973 352.851 174.336 352.964C174.698 353.078 175.04 353.05 175.363 352.881ZM177.467 348.485C177.325 348.94 177.055 349.271 176.659 349.479C176.263 349.686 175.841 349.72 175.394 349.58C174.947 349.441 174.62 349.173 174.413 348.776C174.205 348.38 174.172 347.954 174.315 347.499C174.407 347.205 174.56 346.962 174.775 346.768C174.987 346.574 175.228 346.459 175.499 346.425L175.567 346.718C175.346 346.746 175.149 346.839 174.976 346.997C174.804 347.151 174.68 347.348 174.605 347.59C174.493 347.948 174.522 348.291 174.694 348.619C174.863 348.941 175.128 349.159 175.49 349.273C175.857 349.387 176.201 349.36 176.524 349.191C176.846 349.022 177.064 348.757 177.177 348.395C177.253 348.153 177.264 347.92 177.21 347.696C177.158 347.467 177.051 347.272 176.889 347.111L177.119 346.905C177.315 347.099 177.446 347.338 177.511 347.624C177.572 347.908 177.558 348.195 177.467 348.485ZM175.007 345.518L175.787 343.024L178.807 343.968L178.711 344.276L175.987 343.424L175.398 345.309L178.121 346.16L178.027 346.462L175.007 345.518ZM176.438 340.712C176.576 340.269 176.845 339.96 177.245 339.784C177.646 339.605 178.062 339.582 178.492 339.717C178.5 339.72 178.524 339.729 178.563 339.746C178.603 339.759 178.627 339.766 178.635 339.769L177.78 342.504C178.129 342.574 178.445 342.524 178.728 342.356C179.006 342.187 179.2 341.927 179.31 341.577C179.384 341.34 179.401 341.115 179.361 340.904C179.317 340.691 179.226 340.51 179.087 340.361L179.327 340.144C179.497 340.334 179.608 340.566 179.66 340.838C179.709 341.105 179.688 341.384 179.598 341.674C179.451 342.141 179.185 342.475 178.8 342.677C178.409 342.882 177.984 342.913 177.525 342.769C177.074 342.628 176.745 342.366 176.537 341.983C176.329 341.591 176.295 341.167 176.438 340.712ZM176.728 340.803C176.622 341.141 176.639 341.46 176.779 341.76C176.921 342.057 177.156 342.274 177.484 342.412L178.243 339.984C177.875 339.904 177.555 339.945 177.283 340.108C177.007 340.269 176.822 340.501 176.728 340.803ZM178.837 338.361L180.934 337.167L180.806 337.578L178.82 338.713L180.305 339.178L180.211 339.48L177.191 338.535L177.286 338.234L178.657 338.662L177.764 336.706L177.896 336.283L178.837 338.361ZM177.984 336.003L178.766 333.503L179.061 333.595L178.718 334.694L181.441 335.546L181.347 335.848L178.623 334.996L178.279 336.095L177.984 336.003ZM179.178 327.943L183.104 329.171L183.244 328.724L184.355 329.072L184.253 329.398L183.443 329.145L182.45 332.321L183.259 332.574L183.157 332.9L182.046 332.553L182.152 332.215C181.916 331.823 181.456 331.52 180.772 331.306L178.362 330.552L179.178 327.943ZM178.765 330.327L180.878 330.988C181.526 331.19 181.991 331.473 182.271 331.834L183.004 329.491L179.38 328.358L178.765 330.327ZM183.333 327.655L181.441 324.949L181.524 324.683L184.544 325.628L184.447 325.936L181.953 325.156L183.847 327.856L183.763 328.122L180.744 327.177L180.838 326.875L183.333 327.655ZM183.864 321.992L182.5 321.565L182.596 321.257L185.615 322.201L185.519 322.509L184.154 322.082L183.565 323.967L184.93 324.393L184.835 324.695L181.816 323.751L181.91 323.449L183.275 323.876L183.864 321.992ZM183.686 317.77L183.8 317.408L186.819 318.352L186.723 318.66L184.162 317.859L185.591 319.546L185.577 319.588L183.429 320.162L186.001 320.967L185.907 321.269L182.887 320.325L182.999 319.968L185.076 319.411L183.686 317.77ZM187.14 316.161L184.781 314.269L184.883 313.943L187.773 316.279C188.037 316.494 188.22 316.735 188.322 317.001C188.425 317.267 188.427 317.522 188.329 317.765L188.045 317.677C188.12 317.493 188.12 317.302 188.044 317.106C187.969 316.91 187.827 316.727 187.62 316.556L187.477 316.438L183.969 316.866L184.071 316.54L187.14 316.161ZM186.905 312.608L188.839 311.894L188.724 312.262L187.088 312.871L188.086 314.303L187.97 314.672L186.796 312.978L184.974 313.655L185.089 313.286L186.611 312.722L185.684 311.384L185.797 311.022L186.905 312.608ZM187.465 308.085L186.782 307.872L186.879 307.564L189.898 308.508L189.802 308.816L189.119 308.603C189.311 308.809 189.439 309.045 189.501 309.312C189.563 309.579 189.55 309.854 189.462 310.136C189.329 310.562 189.062 310.883 188.664 311.099C188.262 311.309 187.84 311.345 187.397 311.207C186.954 311.068 186.629 310.799 186.423 310.398C186.213 309.997 186.175 309.58 186.31 309.15C186.398 308.868 186.544 308.635 186.747 308.451C186.951 308.267 187.19 308.145 187.465 308.085ZM188.52 310.816C188.848 310.644 189.068 310.379 189.18 310.021C189.291 309.666 189.26 309.325 189.089 308.998C188.92 308.675 188.654 308.458 188.292 308.344C187.93 308.231 187.587 308.259 187.265 308.427C186.937 308.599 186.718 308.862 186.607 309.216C186.495 309.574 186.525 309.917 186.696 310.245C186.865 310.567 187.131 310.785 187.493 310.899C187.855 311.012 188.198 310.984 188.52 310.816ZM187.968 304.082L188.081 303.72L191.1 304.665L191.004 304.973L188.444 304.172L189.872 305.858L189.859 305.9L187.71 306.475L190.283 307.279L190.188 307.581L187.169 306.637L187.28 306.281L189.357 305.724L187.968 304.082ZM188.73 301.412C188.868 300.969 189.138 300.66 189.537 300.485C189.938 300.305 190.354 300.283 190.785 300.417C190.793 300.42 190.816 300.43 190.855 300.446C190.896 300.459 190.92 300.466 190.928 300.469L190.072 303.204C190.422 303.274 190.738 303.225 191.02 303.057C191.298 302.887 191.492 302.628 191.602 302.277C191.676 302.04 191.693 301.815 191.653 301.604C191.609 301.391 191.518 301.21 191.379 301.061L191.619 300.844C191.79 301.035 191.901 301.266 191.952 301.538C192.001 301.806 191.98 302.084 191.89 302.374C191.744 302.841 191.478 303.176 191.092 303.378C190.701 303.582 190.276 303.613 189.817 303.469C189.366 303.328 189.037 303.066 188.83 302.683C188.621 302.291 188.588 301.867 188.73 301.412ZM189.02 301.503C188.914 301.841 188.931 302.16 189.072 302.461C189.213 302.757 189.448 302.974 189.776 303.112L190.536 300.684C190.167 300.604 189.847 300.646 189.575 300.808C189.299 300.969 189.114 301.201 189.02 301.503ZM190.221 296.878L192.945 297.73L193.077 297.307L194.182 297.653L194.086 297.961L193.277 297.707L192.461 300.316L193.27 300.569L193.173 300.877L192.068 300.532L192.178 300.181C191.949 299.867 191.579 299.63 191.068 299.47L189.558 298.997L190.221 296.878ZM192.295 299.807L192.848 298.038L190.421 297.278L189.949 298.788L191.162 299.168C191.662 299.324 192.039 299.537 192.295 299.807ZM192.038 293.466L191.355 293.253L191.451 292.945L194.471 293.889L194.375 294.197L193.692 293.984C193.884 294.189 194.011 294.426 194.074 294.693C194.136 294.96 194.123 295.234 194.035 295.516C193.901 295.943 193.635 296.264 193.236 296.48C192.835 296.69 192.412 296.726 191.97 296.587C191.527 296.449 191.202 296.179 190.996 295.779C190.786 295.377 190.748 294.961 190.883 294.53C190.971 294.248 191.117 294.015 191.32 293.832C191.523 293.648 191.762 293.526 192.038 293.466ZM193.093 296.196C193.421 296.025 193.641 295.76 193.753 295.401C193.863 295.047 193.833 294.706 193.661 294.378C193.493 294.056 193.227 293.838 192.865 293.725C192.503 293.611 192.16 293.639 191.838 293.808C191.51 293.979 191.291 294.242 191.18 294.597C191.068 294.955 191.098 295.298 191.269 295.626C191.438 295.948 191.704 296.166 192.066 296.279C192.428 296.393 192.771 296.365 193.093 296.196ZM193.319 289.941L196.181 288.423L196.046 288.852L193.3 290.32L195.383 290.971L195.283 291.292L191.056 289.969L191.156 289.649L193.125 290.265L191.8 287.59L191.934 287.161L193.319 289.941ZM196.319 286.816L193.96 284.924L194.062 284.598L196.951 286.934C197.215 287.149 197.399 287.39 197.501 287.656C197.603 287.922 197.606 288.177 197.507 288.42L197.223 288.332C197.299 288.147 197.299 287.957 197.223 287.761C197.147 287.565 197.006 287.382 196.798 287.211L196.656 287.093L193.148 287.521L193.25 287.195L196.319 286.816ZM196.28 282.297L194.915 281.87L195.012 281.562L198.031 282.506L197.935 282.814L196.57 282.388L195.981 284.272L197.346 284.699L197.251 285L194.232 284.056L194.326 283.754L195.691 284.181L196.28 282.297ZM196.817 278.186L196.134 277.973L196.231 277.665L199.25 278.609L199.154 278.917L198.471 278.704C198.663 278.909 198.791 279.146 198.853 279.413C198.915 279.68 198.902 279.954 198.814 280.236C198.681 280.663 198.415 280.984 198.016 281.2C197.614 281.41 197.192 281.446 196.749 281.307C196.306 281.169 195.981 280.899 195.775 280.499C195.565 280.097 195.527 279.681 195.662 279.25C195.75 278.968 195.896 278.736 196.099 278.552C196.303 278.368 196.542 278.246 196.817 278.186ZM197.872 280.916C198.2 280.745 198.42 280.48 198.532 280.121C198.643 279.767 198.612 279.426 198.441 279.098C198.272 278.776 198.006 278.558 197.644 278.445C197.282 278.331 196.939 278.359 196.617 278.528C196.289 278.7 196.07 278.962 195.959 279.317C195.847 279.675 195.877 280.018 196.049 280.346C196.217 280.668 196.483 280.886 196.845 280.999C197.208 281.113 197.55 281.085 197.872 280.916ZM196.879 275.358C197.018 274.915 197.287 274.606 197.687 274.43C198.087 274.251 198.503 274.228 198.934 274.363C198.942 274.366 198.966 274.375 199.005 274.392C199.045 274.404 199.069 274.412 199.077 274.415L198.222 277.15C198.571 277.22 198.887 277.17 199.169 277.002C199.448 276.833 199.642 276.573 199.751 276.223C199.825 275.986 199.843 275.761 199.803 275.55C199.759 275.337 199.667 275.156 199.528 275.006L199.769 274.79C199.939 274.98 200.05 275.212 200.102 275.484C200.151 275.751 200.13 276.03 200.039 276.32C199.893 276.787 199.627 277.121 199.241 277.323C198.85 277.528 198.425 277.559 197.966 277.415C197.515 277.274 197.186 277.012 196.979 276.629C196.77 276.237 196.737 275.813 196.879 275.358ZM197.169 275.449C197.063 275.787 197.081 276.106 197.221 276.406C197.363 276.702 197.597 276.92 197.926 277.058L198.685 274.63C198.317 274.55 197.996 274.591 197.725 274.754C197.449 274.915 197.264 275.147 197.169 275.449ZM199.676 271.779C199.9 271.46 200.197 271.358 200.567 271.474C200.817 271.552 200.992 271.697 201.094 271.91C201.196 272.119 201.202 272.371 201.11 272.664L200.652 274.126L197.633 273.181L198.054 271.835C198.142 271.553 198.286 271.357 198.484 271.246C198.679 271.131 198.893 271.109 199.127 271.182C199.449 271.283 199.632 271.482 199.676 271.779ZM198.35 271.927L198.023 272.972L199.068 273.299L199.395 272.254C199.455 272.061 199.455 271.899 199.394 271.77C199.333 271.64 199.218 271.549 199.049 271.496C198.888 271.446 198.746 271.459 198.625 271.536C198.501 271.608 198.409 271.738 198.35 271.927ZM200.451 273.731L200.814 272.572C200.877 272.371 200.877 272.2 200.814 272.062C200.752 271.923 200.634 271.826 200.461 271.772C200.292 271.719 200.143 271.734 200.015 271.818C199.885 271.897 199.788 272.035 199.727 272.232L199.364 273.391L200.451 273.731ZM200.104 267.677L199.421 267.464L199.518 267.156L202.537 268.1L202.441 268.408L201.759 268.195C201.95 268.4 202.078 268.637 202.14 268.904C202.202 269.171 202.189 269.445 202.101 269.727C201.968 270.154 201.702 270.475 201.303 270.691C200.901 270.901 200.479 270.937 200.036 270.798C199.593 270.66 199.268 270.39 199.062 269.99C198.852 269.588 198.814 269.172 198.949 268.741C199.037 268.459 199.183 268.227 199.386 268.043C199.59 267.859 199.829 267.737 200.104 267.677ZM201.159 270.407C201.487 270.236 201.707 269.971 201.819 269.612C201.93 269.258 201.899 268.917 201.728 268.589C201.559 268.267 201.294 268.049 200.931 267.936C200.569 267.822 200.227 267.85 199.904 268.019C199.576 268.19 199.357 268.453 199.246 268.808C199.134 269.166 199.164 269.509 199.336 269.837C199.504 270.159 199.77 270.377 200.132 270.49C200.495 270.604 200.837 270.576 201.159 270.407Z" fill="white"/>
<path d="M296.018 90.1218L297.27 87.2166L301.338 88.9701L301.202 89.2838L297.426 87.6556L296.441 89.9391L300.218 91.5673L300.085 91.8753L296.018 90.1218ZM299.44 85.204C299.621 84.7857 299.921 84.4947 300.34 84.3311C300.758 84.162 301.18 84.1693 301.606 84.353C302.032 84.5367 302.328 84.8392 302.496 85.2605C302.661 85.6763 302.654 86.0933 302.473 86.5117C302.355 86.7867 302.184 87.007 301.961 87.1727C301.736 87.3329 301.481 87.4229 301.197 87.4428L303.033 88.2343L302.908 88.5249L298.84 86.7714L298.966 86.4808L299.64 86.7714C299.459 86.5511 299.352 86.305 299.317 86.0329C299.281 85.7554 299.322 85.4791 299.44 85.204ZM301.448 87.1309C301.792 86.9943 302.038 86.7536 302.187 86.4089C302.334 86.068 302.339 85.7257 302.202 85.382C302.066 85.0383 301.825 84.7921 301.48 84.6435C301.136 84.4949 300.791 84.4889 300.448 84.6255C300.104 84.7621 299.859 85.0008 299.712 85.3417C299.563 85.6865 299.557 86.0307 299.694 86.3744C299.828 86.7126 300.07 86.9568 300.418 87.1071C300.767 87.2574 301.11 87.2653 301.448 87.1309ZM303.998 82.9759C303.814 83.402 303.513 83.7015 303.093 83.8745C302.672 84.042 302.248 84.0339 301.822 83.8502C301.396 83.6665 301.101 83.3648 300.938 82.9452C300.77 82.5239 300.779 82.0982 300.965 81.6683C301.147 81.246 301.448 80.9512 301.87 80.7837C302.289 80.6107 302.711 80.616 303.137 80.7997C303.56 80.9818 303.856 81.2862 304.025 81.7131C304.187 82.1366 304.178 82.5575 303.998 82.9759ZM302.98 83.5777C303.324 83.4411 303.57 83.2004 303.719 82.8556C303.866 82.5148 303.871 82.1725 303.734 81.8288C303.6 81.4906 303.358 81.2464 303.01 81.0961C302.661 80.9458 302.318 80.9378 301.98 81.0722C301.636 81.2089 301.391 81.4476 301.244 81.7885C301.095 82.1332 301.089 82.4775 301.226 82.8212C301.36 83.1593 301.601 83.4036 301.95 83.5539C302.299 83.7042 302.642 83.7121 302.98 83.5777ZM305.529 79.4238C305.34 79.8615 305.038 80.163 304.622 80.3283C304.207 80.4936 303.784 80.4835 303.354 80.2981C302.924 80.1128 302.626 79.8122 302.461 79.3964C302.296 78.9807 302.307 78.5539 302.496 78.1162C302.618 77.8334 302.796 77.607 303.03 77.4369C303.26 77.2652 303.512 77.1762 303.786 77.1702L303.823 77.4685C303.6 77.4736 303.394 77.5457 303.206 77.6849C303.019 77.8202 302.875 78.004 302.775 78.2365C302.626 78.5812 302.62 78.9254 302.757 79.2691C302.891 79.6073 303.133 79.8515 303.481 80.0018C303.834 80.1538 304.179 80.1626 304.517 80.0281C304.856 79.8937 305.1 79.6522 305.25 79.3036C305.35 79.0712 305.385 78.8406 305.356 78.6117C305.327 78.379 305.241 78.1742 305.097 77.9972L305.347 77.8158C305.522 78.0289 305.627 78.2808 305.662 78.5717C305.694 78.8609 305.649 79.1449 305.529 79.4238ZM303.39 76.2174L304.425 73.8177L307.33 75.0702L307.202 75.3665L304.582 74.2367L303.8 76.0496L306.421 77.1793L306.296 77.4699L303.39 76.2174ZM305.312 71.5858C305.495 71.1597 305.795 70.88 306.211 70.7469C306.628 70.6099 307.044 70.6307 307.458 70.8094C307.466 70.8128 307.489 70.8247 307.526 70.8453C307.564 70.862 307.588 70.872 307.595 70.8753L306.461 73.5074C306.801 73.6129 307.12 73.5967 307.419 73.4588C307.713 73.3193 307.933 73.0811 308.078 72.7441C308.177 72.5155 308.217 72.2941 308.199 72.0797C308.178 71.8636 308.105 71.674 307.983 71.5109L308.244 71.3204C308.394 71.5273 308.48 71.769 308.503 72.0454C308.524 72.3163 308.475 72.5912 308.355 72.8701C308.161 73.3195 307.862 73.6246 307.457 73.7854C307.047 73.9485 306.621 73.9348 306.179 73.7445C305.745 73.5574 305.445 73.2627 305.279 72.8602C305.112 72.4483 305.123 72.0235 305.312 71.5858ZM305.59 71.706C305.45 72.0314 305.434 72.3507 305.543 72.6638C305.653 72.9731 305.864 73.2134 306.176 73.3847L307.183 71.0489C306.825 70.9313 306.502 70.9392 306.215 71.0726C305.924 71.2043 305.716 71.4155 305.59 71.706ZM307.942 69.496L310.152 68.5262L309.981 68.9213L307.888 69.8449L309.317 70.4611L309.192 70.7516L306.287 69.4991L306.412 69.2086L307.731 69.7772L307.046 67.7386L307.221 67.3318L307.942 69.496ZM307.338 67.0622L308.375 64.6568L308.659 64.7795L308.203 65.837L310.824 66.9667L310.699 67.2573L308.078 66.1275L307.622 67.185L307.338 67.0622ZM309.932 62.4341L310.433 61.2721C310.575 60.9428 310.815 60.711 311.153 60.5766C311.488 60.4405 311.819 60.4434 312.149 60.5854C312.478 60.7273 312.71 60.9674 312.844 61.3055C312.98 61.6398 312.977 61.9735 312.833 62.3066L312.199 63.7767L308.132 62.0232L309.141 59.6816L309.432 59.8068L308.555 61.8405L309.932 62.4341ZM312.041 63.3435L312.542 62.1814C312.648 61.9374 312.649 61.6898 312.546 61.4386C312.443 61.1875 312.265 61.0077 312.013 60.8991C311.769 60.7939 311.519 60.7892 311.262 60.885C311.008 60.9825 310.829 61.1533 310.724 61.3973L310.223 62.5594L312.041 63.3435ZM312.493 56.9099L311.836 56.6269L311.964 56.3305L314.869 57.583L314.742 57.8794L314.085 57.5963C314.255 57.821 314.357 58.0693 314.391 58.3414C314.425 58.6134 314.384 58.885 314.267 59.1562C314.09 59.5668 313.792 59.8586 313.373 60.0316C312.952 60.199 312.528 60.1909 312.102 60.0072C311.676 59.8235 311.381 59.5219 311.217 59.1022C311.05 58.6809 311.055 58.263 311.234 57.8485C311.351 57.5774 311.52 57.3609 311.741 57.1991C311.963 57.0373 312.213 56.9409 312.493 56.9099ZM313.26 59.7347C313.603 59.5981 313.85 59.3574 313.998 59.0127C314.145 58.6718 314.15 58.3295 314.014 57.9858C313.879 57.6476 313.638 57.4034 313.289 57.2531C312.94 57.1028 312.597 57.0949 312.259 57.2293C311.915 57.3659 311.67 57.6047 311.523 57.9455C311.374 58.2903 311.368 58.6345 311.505 58.9782C311.639 59.3164 311.881 59.5606 312.229 59.7109C312.578 59.8612 312.921 59.8691 313.26 59.7347ZM312.675 53.2915L312.041 54.7615L311.786 54.6513L312.419 53.1813L312.675 53.2915ZM314.874 56.1825L313.273 53.2944L313.383 53.0388L316.289 54.2913L316.161 54.5876L313.761 53.553L315.364 56.4353L315.254 56.691L312.349 55.4385L312.474 55.1479L314.874 56.1825ZM314.797 49.7595L317.418 50.8893L317.593 50.4825L318.656 50.9409L318.529 51.2373L317.75 50.9016L316.668 53.4117L317.446 53.7474L317.319 54.0437L316.255 53.5853L316.401 53.2483C316.206 52.9116 315.862 52.6373 315.371 52.4252L313.918 51.7989L314.797 49.7595ZM316.556 52.888L317.29 51.1856L314.954 50.1786L314.328 51.6312L315.496 52.1347C315.976 52.3418 316.329 52.5929 316.556 52.888ZM317.773 49.4586L316.172 46.5705L316.282 46.3149L319.187 47.5674L319.06 47.8637L316.66 46.8291L318.263 49.7114L318.153 49.967L315.248 48.7145L315.373 48.424L317.773 49.4586ZM320.19 45.4337C320.011 45.8482 319.724 46.1375 319.327 46.3017C318.927 46.4604 318.507 46.4445 318.065 46.2542C317.581 46.0454 317.238 45.8145 317.034 45.5615C316.827 45.2974 316.711 44.9006 316.686 44.371L316.683 44.0113C316.686 43.6729 316.684 43.4699 316.677 43.4023C316.662 43.2444 316.632 43.1166 316.587 43.0191C316.538 42.9198 316.457 42.8366 316.343 42.7693L316.577 42.5945C316.776 42.7306 316.897 42.9184 316.941 43.1577C316.956 43.2608 316.97 43.3724 316.982 43.4927C316.991 43.5885 316.994 43.7272 316.989 43.9089L316.986 44.3143C316.993 44.6616 317.041 44.9329 317.132 45.128C317.222 45.3232 317.387 45.5 317.626 45.6583C317.478 45.4381 317.395 45.1981 317.379 44.9383C317.362 44.6785 317.404 44.4324 317.504 44.2C317.671 43.8126 317.938 43.5462 318.303 43.4008C318.669 43.2554 319.05 43.2678 319.445 43.4381C319.836 43.6068 320.102 43.8799 320.242 44.2574C320.386 44.6271 320.369 45.0193 320.19 45.4337ZM319.899 45.3085C320.04 44.9831 320.056 44.6732 319.949 44.3789C319.834 44.0812 319.623 43.8664 319.317 43.7345C319.003 43.5992 318.702 43.5889 318.414 43.7034C318.126 43.818 317.912 44.0361 317.774 44.3576C317.647 44.652 317.625 44.9574 317.71 45.2738C317.795 45.5864 317.98 45.8178 318.265 45.968C318.594 46.1099 318.914 46.1192 319.224 45.9958C319.529 45.8746 319.754 45.6455 319.899 45.3085ZM318.6 40.7635C318.783 40.3374 319.083 40.0578 319.499 39.9247C319.916 39.7877 320.332 39.8085 320.747 39.9872C320.754 39.9905 320.777 40.0025 320.814 40.0231C320.853 40.0398 320.876 40.0498 320.884 40.0531L319.749 42.6852C320.089 42.7906 320.409 42.7744 320.707 42.6366C321.001 42.4971 321.221 42.2589 321.366 41.9219C321.465 41.6933 321.505 41.4719 321.488 41.2575C321.466 41.0414 321.394 40.8518 321.271 40.6887L321.532 40.4982C321.682 40.7051 321.768 40.9468 321.792 41.2232C321.813 41.4941 321.763 41.769 321.643 42.0479C321.449 42.4972 321.15 42.8023 320.745 42.9632C320.335 43.1263 319.909 43.1126 319.468 42.9222C319.034 42.7352 318.734 42.4404 318.567 42.038C318.4 41.6261 318.411 41.2013 318.6 40.7635ZM318.879 40.8838C318.738 41.2092 318.722 41.5284 318.831 41.8416C318.941 42.1509 319.152 42.3912 319.464 42.5625L320.471 40.2267C320.113 40.1091 319.79 40.117 319.503 40.2504C319.212 40.3821 319.004 40.5933 318.879 40.8838ZM321.23 38.6738L323.44 37.704L323.269 38.0991L321.176 39.0226L322.606 39.6389L322.48 39.9294L319.575 38.6769L319.7 38.3864L321.019 38.955L320.334 36.9163L320.51 36.5096L321.23 38.6738ZM324.975 34.335C324.796 34.7495 324.508 35.0388 324.112 35.203C323.712 35.3617 323.292 35.3458 322.85 35.1554C322.366 34.9467 322.022 34.7158 321.819 34.4628C321.612 34.1987 321.496 33.8019 321.471 33.2723L321.468 32.9126C321.471 32.5741 321.469 32.3711 321.462 32.3035C321.447 32.1457 321.417 32.0179 321.372 31.9203C321.323 31.8211 321.242 31.7378 321.128 31.6706L321.362 31.4958C321.561 31.6319 321.682 31.8196 321.726 32.059C321.741 32.1621 321.755 32.2737 321.767 32.3939C321.776 32.4898 321.779 32.6285 321.774 32.8102L321.771 33.2156C321.778 33.5629 321.826 33.8342 321.917 34.0293C322.007 34.2245 322.172 34.4012 322.411 34.5596C322.263 34.3394 322.18 34.0994 322.164 33.8396C322.147 33.5798 322.189 33.3337 322.289 33.1013C322.456 32.7139 322.723 32.4475 323.088 32.3021C323.454 32.1566 323.835 32.1691 324.23 32.3394C324.621 32.5081 324.887 32.7812 325.027 33.1587C325.171 33.5284 325.154 33.9205 324.975 34.335ZM324.684 34.2098C324.825 33.8844 324.841 33.5745 324.734 33.2802C324.619 32.9825 324.408 32.7677 324.102 32.6358C323.788 32.5005 323.487 32.4901 323.199 32.6047C322.911 32.7193 322.697 32.9374 322.559 33.2589C322.432 33.5533 322.41 33.8587 322.494 34.1751C322.58 34.4877 322.765 34.7191 323.05 34.8692C323.379 35.0112 323.699 35.0205 324.009 34.8971C324.314 34.7759 324.539 34.5468 324.684 34.2098ZM325.41 31.7438L323.809 28.8557L323.92 28.6L326.825 29.8525L326.697 30.1489L324.297 29.1143L325.9 31.9966L325.79 32.2522L322.885 30.9997L323.01 30.7092L325.41 31.7438Z" fill="white"/>
<path d="M359.129 244.508L361.163 242.144L361.495 242.249L359.047 245.106C358.558 245.673 358.033 245.845 357.47 245.623L357.563 245.328C357.979 245.512 358.37 245.392 358.738 244.969L358.864 244.823L358.357 241.259L358.689 241.363L359.129 244.508ZM361.561 243.597L363.685 244.268L362.732 247.284L362.43 247.189L363.29 244.468L361.769 243.988L361.31 245.442C361.16 245.917 360.968 246.225 360.732 246.368C360.497 246.51 360.219 246.517 359.896 246.389L359.986 246.106C360.225 246.203 360.425 246.193 360.586 246.076C360.751 245.96 360.891 245.717 361.008 245.347L361.561 243.597ZM364.126 247.147L366.838 245.263L367.103 245.347L366.151 248.364L365.843 248.267L366.63 245.775L363.924 247.661L363.659 247.577L364.611 244.56L364.913 244.655L364.126 247.147ZM370.466 246.409L369.607 249.13L370.09 249.282L369.741 250.386L369.434 250.289L369.689 249.481L367.082 248.658L368.035 245.641L368.336 245.736L367.477 248.457L369.299 249.033L370.159 246.311L370.466 246.409ZM373.933 248.253L374.148 247.571L374.456 247.668L373.504 250.685L373.196 250.588L373.411 249.906C373.205 250.098 372.968 250.224 372.701 250.286C372.434 250.347 372.159 250.334 371.878 250.245C371.451 250.11 371.131 249.843 370.916 249.444C370.707 249.041 370.672 248.619 370.812 248.177C370.952 247.734 371.222 247.41 371.623 247.205C372.025 246.996 372.442 246.959 372.872 247.095C373.154 247.184 373.386 247.33 373.57 247.534C373.753 247.738 373.874 247.978 373.933 248.253ZM371.2 249.301C371.371 249.629 371.635 249.85 371.993 249.963C372.347 250.075 372.688 250.045 373.016 249.874C373.339 249.707 373.558 249.442 373.672 249.08C373.786 248.717 373.76 248.375 373.592 248.052C373.421 247.724 373.159 247.504 372.805 247.392C372.447 247.279 372.104 247.308 371.776 247.479C371.453 247.647 371.234 247.912 371.12 248.274C371.006 248.636 371.032 248.978 371.2 249.301ZM377.046 247.159L380.027 248.1L379.932 248.402L378.604 247.983L377.366 251.905L377.04 251.802L378.278 247.88L376.951 247.461L377.046 247.159ZM380.077 252.395L381.975 250.042L382.301 250.145L379.957 253.028C379.741 253.291 379.5 253.474 379.234 253.576C378.967 253.677 378.712 253.679 378.469 253.58L378.559 253.296C378.743 253.372 378.933 253.372 379.129 253.297C379.325 253.222 379.509 253.081 379.681 252.874L379.798 252.732L379.38 249.223L379.706 249.326L380.077 252.395ZM384.462 250.754C384.897 250.891 385.216 251.16 385.422 251.561C385.632 251.96 385.667 252.38 385.528 252.822C385.388 253.265 385.117 253.591 384.715 253.8C384.318 254.006 383.902 254.041 383.468 253.904C383.182 253.814 382.946 253.666 382.758 253.461C382.576 253.253 382.461 253.009 382.412 252.728L381.811 254.635L381.509 254.539L382.842 250.316L383.144 250.411L382.923 251.111C383.124 250.909 383.358 250.777 383.625 250.716C383.898 250.651 384.177 250.664 384.462 250.754ZM382.748 252.947C382.919 253.275 383.183 253.495 383.541 253.609C383.895 253.72 384.236 253.691 384.564 253.52C384.892 253.349 385.113 253.085 385.226 252.727C385.339 252.369 385.31 252.026 385.14 251.698C384.969 251.37 384.707 251.15 384.353 251.038C383.995 250.925 383.652 250.954 383.323 251.125C383.001 251.292 382.782 251.557 382.668 251.919C382.553 252.281 382.58 252.624 382.748 252.947ZM389.171 253.064L389.386 252.382L389.694 252.479L388.741 255.496L388.434 255.399L388.649 254.717C388.443 254.908 388.206 255.035 387.939 255.096C387.671 255.158 387.397 255.144 387.115 255.055C386.689 254.921 386.369 254.654 386.154 254.254C385.945 253.852 385.91 253.43 386.05 252.987C386.19 252.545 386.46 252.221 386.861 252.016C387.263 251.807 387.679 251.77 388.11 251.906C388.391 251.995 388.624 252.141 388.807 252.345C388.991 252.549 389.112 252.788 389.171 253.064ZM386.438 254.112C386.609 254.44 386.873 254.66 387.231 254.773C387.585 254.885 387.926 254.856 388.254 254.685C388.577 254.517 388.796 254.252 388.91 253.89C389.024 253.528 388.997 253.186 388.829 252.863C388.659 252.535 388.397 252.315 388.043 252.203C387.685 252.09 387.341 252.119 387.013 252.289C386.69 252.457 386.472 252.722 386.358 253.084C386.243 253.446 386.27 253.789 386.438 254.112ZM392.24 253.21C392.675 253.347 392.994 253.616 393.2 254.017C393.41 254.415 393.445 254.835 393.306 255.278C393.166 255.72 392.895 256.046 392.493 256.255C392.096 256.462 391.68 256.497 391.246 256.359C390.96 256.269 390.724 256.122 390.536 255.916C390.354 255.709 390.239 255.464 390.19 255.184L389.588 257.09L389.287 256.995L390.62 252.771L390.922 252.867L390.701 253.566C390.902 253.365 391.136 253.233 391.403 253.171C391.676 253.107 391.955 253.12 392.24 253.21ZM390.526 255.402C390.697 255.73 390.961 255.951 391.319 256.064C391.673 256.176 392.014 256.146 392.342 255.976C392.67 255.805 392.891 255.541 393.004 255.183C393.117 254.825 393.088 254.482 392.918 254.153C392.747 253.825 392.485 253.605 392.131 253.494C391.773 253.381 391.43 253.409 391.101 253.58C390.779 253.748 390.56 254.013 390.446 254.375C390.331 254.737 390.358 255.079 390.526 255.402ZM396.949 255.519L397.164 254.837L397.472 254.934L396.519 257.951L396.212 257.854L396.427 257.172C396.22 257.364 395.984 257.49 395.717 257.552C395.449 257.614 395.175 257.6 394.893 257.511C394.467 257.376 394.147 257.109 393.932 256.71C393.723 256.308 393.688 255.885 393.828 255.443C393.968 255 394.238 254.676 394.639 254.471C395.041 254.262 395.457 254.225 395.888 254.361C396.169 254.45 396.402 254.597 396.585 254.8C396.769 255.004 396.89 255.244 396.949 255.519ZM394.216 256.567C394.387 256.895 394.651 257.116 395.009 257.229C395.363 257.341 395.704 257.311 396.032 257.141C396.355 256.973 396.574 256.708 396.688 256.346C396.802 255.984 396.775 255.641 396.607 255.318C396.437 254.99 396.174 254.77 395.82 254.659C395.462 254.546 395.119 254.574 394.791 254.745C394.468 254.913 394.25 255.178 394.136 255.54C394.021 255.902 394.048 256.244 394.216 256.567ZM400.448 254.547L401.884 255C402.262 255.12 402.537 255.344 402.707 255.672C402.878 256 402.904 256.351 402.786 256.725C402.668 257.099 402.445 257.371 402.117 257.542C401.794 257.71 401.442 257.734 401.059 257.613L399.943 257.261L399.434 258.872L399.115 258.771L400.448 254.547ZM400.038 256.959L401.155 257.311C401.44 257.401 401.707 257.382 401.956 257.253C402.205 257.123 402.375 256.914 402.466 256.624C402.559 256.33 402.541 256.059 402.411 255.81C402.282 255.562 402.075 255.392 401.789 255.302L400.673 254.95L400.038 256.959ZM403.421 258.1L404.314 258.382C404.596 258.471 404.804 258.632 404.938 258.864C405.077 259.098 405.104 259.35 405.018 259.619C404.933 259.889 404.767 260.08 404.519 260.192C404.276 260.305 404.013 260.317 403.731 260.228L402.537 259.851L403.489 256.834L403.791 256.929L403.421 258.1ZM405.192 260.689L406.144 257.672L406.446 257.768L405.493 260.784L405.192 260.689ZM402.932 259.651L403.825 259.933C404.022 259.995 404.203 259.988 404.369 259.912C404.54 259.833 404.654 259.703 404.711 259.522C404.77 259.333 404.752 259.161 404.655 259.007C404.563 258.85 404.418 258.74 404.221 258.678L403.328 258.396L402.932 259.651ZM407.781 261.58C407.326 261.436 406.996 261.166 406.789 260.769C406.583 260.372 406.55 259.95 406.691 259.504C406.832 259.057 407.101 258.731 407.498 258.524C407.895 258.318 408.32 258.286 408.775 258.43C409.069 258.523 409.312 258.677 409.505 258.893C409.699 259.104 409.813 259.346 409.847 259.618L409.553 259.684C409.526 259.463 409.433 259.266 409.276 259.092C409.122 258.92 408.925 258.796 408.684 258.72C408.326 258.607 407.982 258.635 407.654 258.806C407.332 258.974 407.113 259.239 406.999 259.601C406.883 259.967 406.909 260.311 407.077 260.634C407.245 260.957 407.51 261.176 407.872 261.29C408.113 261.366 408.346 261.378 408.571 261.325C408.8 261.273 408.995 261.167 409.156 261.005L409.362 261.236C409.168 261.431 408.928 261.561 408.642 261.626C408.357 261.686 408.07 261.671 407.781 261.58ZM410.925 260.774L412.113 262.874L411.703 262.745L410.572 260.756L410.104 262.24L409.802 262.145L410.755 259.128L411.056 259.223L410.624 260.593L412.583 259.705L413.005 259.838L410.925 260.774ZM413.864 263.062L415.762 260.709L416.088 260.812L413.744 263.695C413.528 263.958 413.287 264.141 413.021 264.242C412.754 264.344 412.499 264.345 412.256 264.247L412.346 263.963C412.53 264.039 412.72 264.039 412.916 263.964C413.112 263.889 413.296 263.748 413.468 263.541L413.585 263.399L413.167 259.89L413.493 259.992L413.864 263.062ZM416.772 261.028L418.896 261.698L417.944 264.715L417.642 264.62L418.501 261.899L416.981 261.419L416.522 262.873C416.372 263.347 416.179 263.656 415.944 263.799C415.709 263.941 415.43 263.948 415.108 263.82L415.198 263.536C415.437 263.634 415.636 263.624 415.797 263.507C415.962 263.391 416.103 263.148 416.22 262.778L416.772 261.028ZM420.231 265.51C419.789 265.371 419.46 265.101 419.246 264.702C419.037 264.299 419.002 263.877 419.142 263.434C419.281 262.992 419.552 262.668 419.953 262.463C420.355 262.254 420.779 262.22 421.226 262.361C421.664 262.499 421.988 262.769 422.197 263.172C422.412 263.571 422.449 263.992 422.309 264.435C422.171 264.873 421.898 265.198 421.49 265.41C421.085 265.614 420.666 265.647 420.231 265.51ZM419.53 264.559C419.7 264.887 419.965 265.108 420.323 265.221C420.677 265.332 421.018 265.303 421.346 265.132C421.669 264.964 421.887 264.699 422.002 264.337C422.116 263.975 422.089 263.633 421.921 263.31C421.75 262.982 421.488 262.762 421.134 262.65C420.776 262.537 420.433 262.566 420.105 262.737C419.782 262.905 419.564 263.17 419.449 263.532C419.335 263.894 419.362 264.236 419.53 264.559ZM424.909 265.202C425.227 265.427 425.328 265.724 425.211 266.094C425.133 266.343 424.987 266.518 424.773 266.619C424.564 266.721 424.313 266.726 424.019 266.633L422.559 266.172L423.512 263.155L424.857 263.58C425.139 263.669 425.334 263.813 425.444 264.011C425.559 264.207 425.58 264.421 425.507 264.654C425.405 264.976 425.206 265.159 424.909 265.202ZM424.764 263.876L423.72 263.546L423.39 264.59L424.434 264.92C424.627 264.981 424.789 264.981 424.918 264.92C425.048 264.859 425.14 264.744 425.193 264.575C425.244 264.414 425.231 264.273 425.154 264.152C425.083 264.027 424.953 263.935 424.764 263.876ZM422.954 265.972L424.113 266.338C424.314 266.401 424.484 266.402 424.623 266.339C424.762 266.277 424.859 266.16 424.913 265.987C424.967 265.818 424.952 265.669 424.868 265.541C424.79 265.41 424.653 265.314 424.456 265.251L423.297 264.886L422.954 265.972ZM429.009 265.641L429.225 264.959L429.532 265.056L428.58 268.073L428.272 267.976L428.487 267.294C428.281 267.485 428.044 267.612 427.777 267.674C427.51 267.735 427.235 267.722 426.954 267.633C426.528 267.498 426.207 267.231 425.993 266.832C425.783 266.429 425.749 266.007 425.888 265.564C426.028 265.122 426.298 264.798 426.699 264.593C427.102 264.384 427.518 264.347 427.948 264.483C428.23 264.572 428.462 264.718 428.646 264.922C428.829 265.126 428.95 265.366 429.009 265.641ZM426.276 266.689C426.447 267.017 426.711 267.238 427.069 267.351C427.423 267.462 427.765 267.433 428.093 267.262C428.415 267.094 428.634 266.829 428.748 266.467C428.863 266.105 428.836 265.763 428.668 265.44C428.497 265.112 428.235 264.892 427.881 264.78C427.523 264.667 427.18 264.696 426.852 264.867C426.529 265.035 426.31 265.3 426.196 265.662C426.082 266.024 426.109 266.366 426.276 266.689Z" fill="white"/>
</g>
</g>
<rect width="115" height="37" transform="translate(152 216)" fill="white"/>
<path d="M166.398 238.154C165.371 238.154 164.499 237.804 163.78 237.104C163.071 236.395 162.716 235.527 162.716 234.5C162.716 233.473 163.071 232.61 163.78 231.91C164.489 231.201 165.362 230.846 166.398 230.846C167.415 230.846 168.279 231.201 168.988 231.91C169.707 232.61 170.066 233.473 170.066 234.5C170.066 235.517 169.707 236.385 168.988 237.104C168.269 237.804 167.406 238.154 166.398 238.154ZM164.284 236.614C164.863 237.193 165.567 237.482 166.398 237.482C167.219 237.482 167.919 237.193 168.498 236.614C169.067 236.045 169.352 235.34 169.352 234.5C169.352 233.66 169.067 232.955 168.498 232.386C167.919 231.807 167.219 231.518 166.398 231.518C165.567 231.518 164.863 231.807 164.284 232.386C163.715 232.955 163.43 233.66 163.43 234.5C163.43 235.34 163.715 236.045 164.284 236.614ZM170.721 231H176.517V231.686H173.969V238H173.269V231.686H170.721V231ZM183.239 231V237.314H184.219V239.876H183.505V238H177.457V239.876H176.743V237.314H177.555C178.069 236.623 178.325 235.685 178.325 234.5V231H183.239ZM178.423 237.314H182.525V231.686H179.025V234.5C179.025 235.657 178.825 236.595 178.423 237.314ZM188.774 230.846C189.8 230.846 190.631 231.21 191.266 231.938C191.91 232.666 192.232 233.529 192.232 234.528C192.232 234.547 192.227 234.603 192.218 234.696C192.218 234.789 192.218 234.845 192.218 234.864H185.876C185.96 235.648 186.272 236.283 186.814 236.768C187.355 237.244 188.032 237.482 188.844 237.482C189.394 237.482 189.88 237.37 190.3 237.146C190.72 236.913 191.042 236.6 191.266 236.208L191.882 236.572C191.592 237.057 191.177 237.445 190.636 237.734C190.104 238.014 189.502 238.154 188.83 238.154C187.747 238.154 186.865 237.813 186.184 237.132C185.493 236.441 185.148 235.564 185.148 234.5C185.148 233.455 185.484 232.587 186.156 231.896C186.846 231.196 187.719 230.846 188.774 230.846ZM188.774 231.518C187.99 231.518 187.327 231.765 186.786 232.26C186.254 232.755 185.95 233.394 185.876 234.178H191.504C191.429 233.347 191.13 232.699 190.608 232.232C190.085 231.756 189.474 231.518 188.774 231.518ZM194.491 231H199.419V238H198.719V231.686H195.191V235.06C195.191 236.161 194.99 236.941 194.589 237.398C194.187 237.855 193.604 238.056 192.839 238V237.342C193.408 237.389 193.823 237.235 194.085 236.88C194.355 236.525 194.491 235.919 194.491 235.06V231ZM205.581 231H211.363V238H210.649V231.686H206.281V238H205.581V231ZM217.374 230.846C218.382 230.846 219.236 231.201 219.936 231.91C220.646 232.61 221 233.473 221 234.5C221 235.527 220.646 236.395 219.936 237.104C219.236 237.804 218.382 238.154 217.374 238.154C216.712 238.154 216.114 238 215.582 237.692C215.06 237.375 214.654 236.936 214.364 236.376V240.8H213.664V231H214.364V232.624C214.654 232.064 215.06 231.63 215.582 231.322C216.114 231.005 216.712 230.846 217.374 230.846ZM215.218 236.614C215.797 237.193 216.502 237.482 217.332 237.482C218.154 237.482 218.854 237.193 219.432 236.614C220.011 236.035 220.3 235.331 220.3 234.5C220.3 233.669 220.011 232.965 219.432 232.386C218.854 231.807 218.154 231.518 217.332 231.518C216.502 231.518 215.797 231.807 215.218 232.386C214.649 232.955 214.364 233.66 214.364 234.5C214.364 235.34 214.649 236.045 215.218 236.614ZM226.034 238.154C225.007 238.154 224.134 237.804 223.416 237.104C222.706 236.395 222.352 235.527 222.352 234.5C222.352 233.473 222.706 232.61 223.416 231.91C224.125 231.201 224.998 230.846 226.034 230.846C227.051 230.846 227.914 231.201 228.624 231.91C229.342 232.61 229.702 233.473 229.702 234.5C229.702 235.517 229.342 236.385 228.624 237.104C227.905 237.804 227.042 238.154 226.034 238.154ZM223.92 236.614C224.498 237.193 225.203 237.482 226.034 237.482C226.855 237.482 227.555 237.193 228.134 236.614C228.703 236.045 228.988 235.34 228.988 234.5C228.988 233.66 228.703 232.955 228.134 232.386C227.555 231.807 226.855 231.518 226.034 231.518C225.203 231.518 224.498 231.807 223.92 232.386C223.35 232.955 223.066 233.66 223.066 234.5C223.066 235.34 223.35 236.045 223.92 236.614ZM236.993 231V237.314H237.973V239.876H237.259V238H231.211V239.876H230.497V237.314H231.309C231.822 236.623 232.079 235.685 232.079 234.5V231H236.993ZM232.177 237.314H236.279V231.686H232.779V234.5C232.779 235.657 232.578 236.595 232.177 237.314ZM245.537 232.582V231H246.251V238H245.537V236.418C245.229 236.959 244.814 237.384 244.291 237.692C243.769 238 243.181 238.154 242.527 238.154C241.538 238.154 240.684 237.804 239.965 237.104C239.256 236.395 238.901 235.527 238.901 234.5C238.901 233.473 239.256 232.61 239.965 231.91C240.675 231.201 241.529 230.846 242.527 230.846C243.181 230.846 243.769 231 244.291 231.308C244.814 231.616 245.229 232.041 245.537 232.582ZM240.469 236.614C241.048 237.193 241.753 237.482 242.583 237.482C243.405 237.482 244.105 237.193 244.683 236.614C245.253 236.045 245.537 235.34 245.537 234.5C245.537 233.66 245.253 232.955 244.683 232.386C244.105 231.807 243.405 231.518 242.583 231.518C241.753 231.518 241.048 231.807 240.469 232.386C239.9 232.955 239.615 233.66 239.615 234.5C239.615 235.34 239.9 236.045 240.469 236.614ZM253.119 234.36L256.423 238H255.555L252.461 234.556V238H251.747V234.556L248.653 238H247.785L251.103 234.36L247.925 231H248.793L251.747 234.164V231H252.461V234.164L255.415 231H256.283L253.119 234.36Z" fill="#353535"/>
<path d="M210 264L201.34 252.75L218.66 252.75L210 264Z" fill="white"/>
</svg>
